<svg width="311" height="74" viewBox="0 0 311 74" fill="none" xmlns="http://www.w3.org/2000/svg">
<g clip-path="url(#clip0_12_212)">
<mask id="mask0_12_212" style="mask-type:luminance" maskUnits="userSpaceOnUse" x="0" y="5" width="64" height="64">
<path d="M63.1361 5.79529H0.25V68.6814H63.1361V5.79529Z" fill="white"/>
</mask>
<g mask="url(#mask0_12_212)">
<path d="M31.5899 10.0402C0.97712 10.0402 0.25 44.3622 0.25 51.1568C0.25 57.9514 14.2815 63.454 31.5899 63.454C48.9032 63.454 62.9297 57.9465 62.9297 51.1568C62.9297 44.3622 62.2075 10.0402 31.5899 10.0402Z" fill="#FCC21B"/>
<path d="M54.0667 50.4543C49.3993 52.1296 44.2506 49.7665 42.5507 45.1581C40.8607 40.5547 43.2533 35.4599 47.9206 33.7748C52.5731 32.0994 57.7367 34.4724 59.4415 39.0758C61.1315 43.6891 58.7242 48.7839 54.0667 50.4543Z" fill="#FCC21B"/>
<path d="M53.9537 50.1447C49.4583 51.7611 44.5013 49.4816 42.8702 45.0501C41.244 40.6186 43.5482 35.7154 48.0387 34.0941C52.5191 32.4827 57.4861 34.7672 59.1271 39.1987C60.7533 43.6302 58.4343 48.5334 53.9537 50.1447Z" fill="#FCC01C"/>
<path d="M53.8358 49.8303C49.5173 51.3828 44.7516 49.1966 43.1795 44.9321C41.6172 40.6775 43.8378 35.961 48.1514 34.4036C52.4602 32.856 57.2307 35.0472 58.8077 39.3068C60.37 43.5712 58.1445 48.2877 53.8358 49.8303Z" fill="#FCBE1C"/>
<path d="M53.7233 49.5209C49.5768 51.0094 45.0074 48.9117 43.4992 44.8192C41.9958 40.7316 44.1232 36.2068 48.2648 34.7132C52.3968 33.2246 56.9806 35.3322 58.4938 39.4198C59.9923 43.5123 57.86 48.0372 53.7233 49.5209Z" fill="#FBBB1D"/>
<path d="M53.6103 49.2065C49.6406 50.6311 45.2581 48.6219 43.8186 44.7014C42.3791 40.7857 44.418 36.4525 48.3877 35.0228C52.3477 33.598 56.735 35.6173 58.1843 39.5329C59.614 43.4535 57.5702 47.7867 53.6103 49.2065Z" fill="#FBB91E"/>
<path d="M53.4919 48.8968C49.6942 50.2626 45.5085 48.3367 44.128 44.593C42.7523 40.8494 44.7028 36.7077 48.4956 35.337C52.2784 33.9761 56.4741 35.902 57.8595 39.6457C59.2352 43.3943 57.2798 47.5359 53.4919 48.8968Z" fill="#FBB71E"/>
<path d="M53.379 48.5875C49.7581 49.8894 45.7637 48.0519 44.447 44.4802C43.1353 40.9085 44.9924 36.9584 48.6132 35.6516C52.2244 34.3546 56.2285 36.192 57.5501 39.7638C58.8569 43.3355 56.99 47.2904 53.379 48.5875Z" fill="#FBB51F"/>
<path d="M53.261 48.2729C49.8121 49.511 46.0095 47.7669 44.7616 44.3622C43.5137 40.9624 45.2824 37.204 48.7264 35.961C52.1654 34.7229 55.973 36.4768 57.2307 39.8766C58.4786 43.2764 56.7001 47.0397 53.261 48.2729Z" fill="#FAB220"/>
<path d="M53.1485 47.9634C49.8764 49.1376 46.2652 47.4819 45.0763 44.2541C43.8922 41.0262 45.5725 37.4545 48.8396 36.2754C52.102 35.1012 55.718 36.7667 56.9118 39.9896C58.1007 43.2174 56.4107 46.7892 53.1485 47.9634Z" fill="#FAB020"/>
<path d="M53.035 47.649C49.9349 48.7594 46.5204 47.1921 45.3953 44.1363C44.2752 41.0804 45.862 37.7003 48.9572 36.585C52.0475 35.4747 55.4718 37.0468 56.6018 40.1027C57.722 43.1586 56.1252 46.5387 53.035 47.649Z" fill="#FAAE21"/>
<path d="M52.9171 47.3394C49.9938 48.3908 46.7708 46.9071 45.7047 44.0232C44.6484 41.1392 46.1468 37.9508 49.0651 36.8994C51.9787 35.8529 55.2114 37.3366 56.2775 40.2205C57.3387 43.0995 55.8354 46.293 52.9171 47.3394Z" fill="#FAAC22"/>
<path d="M52.8041 47.025C50.0577 48.0125 47.0215 46.6222 46.0241 43.9053C45.0268 41.1982 46.4417 38.1964 49.1881 37.204C51.9296 36.2165 54.9658 37.6167 55.968 40.3237C56.9605 43.0406 55.5455 46.0424 52.8041 47.025Z" fill="#F9A922"/>
<path d="M52.6911 46.7156C50.1167 47.6393 47.2771 46.3373 46.3437 43.7973C45.4102 41.2622 46.7318 38.452 49.3062 37.5234C51.8755 36.5998 54.7201 37.9066 55.6585 40.4467C56.5822 42.9818 55.2557 45.792 52.6911 46.7156Z" fill="#F9A723"/>
<path d="M52.5732 46.4012C50.1756 47.2609 47.5275 46.0474 46.653 43.6794C45.7834 41.3162 47.0166 38.6976 49.4141 37.828C51.8067 36.9682 54.4598 38.1867 55.3343 40.5547C56.2039 42.9228 54.9658 45.5463 52.5732 46.4012Z" fill="#F9A524"/>
<path d="M52.4602 46.0916C50.2347 46.8924 47.7783 45.7624 46.9726 43.5663C46.1669 41.3751 47.3067 38.9432 49.5321 38.1424C51.7528 37.3465 54.2093 38.4765 55.0199 40.6677C55.8256 42.8638 54.6809 45.2957 52.4602 46.0916Z" fill="#F9A324"/>
<path d="M52.3423 45.782C50.2935 46.519 48.0286 45.4774 47.2867 43.4533C46.5448 41.4341 47.5962 39.1937 49.645 38.4568C51.6888 37.7199 53.9537 38.7663 54.7054 40.7856C55.4473 42.8048 54.391 45.0451 52.3423 45.782Z" fill="#F8A025"/>
<path d="M52.2292 45.4677C50.3524 46.1408 48.2842 45.1926 47.6013 43.3404C46.9233 41.4931 47.8862 39.4444 49.758 38.7664C51.6298 38.0933 53.7031 39.0465 54.386 40.8986C55.0689 42.7459 54.101 44.7946 52.2292 45.4677Z" fill="#F89E26"/>
<path d="M52.1167 45.1582C50.4169 45.7674 48.5399 44.9077 47.9209 43.2274C47.3067 41.5521 48.1763 39.695 49.8764 39.0809C51.5763 38.4717 53.4531 39.3363 54.077 41.0117C54.6911 42.687 53.8117 44.549 52.1167 45.1582Z" fill="#F89C26"/>
<path d="M51.9984 44.8437C50.4705 45.3939 48.7855 44.6177 48.2304 43.1094C47.6752 41.606 48.4613 39.9405 49.9841 39.3854C51.5071 38.84 53.1923 39.6163 53.7524 41.1196C54.3124 42.6279 53.5214 44.2983 51.9984 44.8437Z" fill="#F89A27"/>
<path d="M51.8858 44.534C50.5348 45.0204 49.041 44.3327 48.5497 43.0012C48.0584 41.6698 48.756 40.191 50.1073 39.7046C51.4584 39.2182 52.952 39.9061 53.4432 41.2424C53.9296 42.5689 53.232 44.0477 51.8858 44.534Z" fill="#F79728"/>
<path d="M51.7724 44.2197C50.5932 44.6423 49.2962 44.0478 48.8687 42.8834C48.4413 41.7239 49.0456 40.4367 50.2248 40.0142C51.399 39.5917 52.7009 40.1911 53.1333 41.3506C53.5509 42.51 52.9466 43.8021 51.7724 44.2197Z" fill="#F79528"/>
<path d="M51.6549 43.9103C50.6527 44.2689 49.5423 43.7629 49.1786 42.7705C48.815 41.7829 49.3309 40.6873 50.3333 40.3238C51.3356 39.9651 52.441 40.4761 52.8095 41.4636C53.173 42.4511 52.6572 43.5516 51.6549 43.9103Z" fill="#F79329"/>
<path d="M15.7456 50.4543C11.0783 52.1296 5.92948 49.7665 4.22958 45.1581C2.53952 40.5547 4.93214 35.4599 9.59947 33.7748C14.2521 32.0994 19.4156 34.4724 21.1204 39.0758C22.8105 43.6891 20.4031 48.7839 15.7456 50.4543Z" fill="#FCC21B"/>
<path d="M15.6327 50.1447C11.1374 51.7611 6.18018 49.4816 4.54908 45.0501C2.92288 40.6186 5.22707 35.7154 9.71752 34.0941C14.1982 32.4827 19.1652 34.7672 20.8061 39.1987C22.4323 43.6302 20.1134 48.5334 15.6327 50.1447Z" fill="#FCC01C"/>
<path d="M15.5146 49.8303C11.1961 51.3828 6.43049 49.1966 4.85833 44.9321C3.296 40.6775 5.51668 35.961 9.83027 34.4036C14.1389 32.856 18.9094 35.0472 20.4865 39.3068C22.0488 43.5712 19.8233 48.2877 15.5146 49.8303Z" fill="#FCBE1C"/>
<path d="M15.4019 49.5209C11.2553 51.0094 6.68627 48.9117 5.17799 44.8192C3.67464 40.7316 5.80193 36.2068 9.94357 34.7132C14.0754 33.2246 18.6592 35.3322 20.1724 39.4198C21.6708 43.5123 19.5386 48.0372 15.4019 49.5209Z" fill="#FBBB1D"/>
<path d="M15.289 49.2065C11.3193 50.6311 6.93695 48.6219 5.49745 44.7014C4.05793 40.7857 6.09683 36.4525 10.0665 35.0228C14.0264 33.598 18.4137 35.6173 19.863 39.5329C21.2927 43.4535 19.2489 47.7867 15.289 49.2065Z" fill="#FBB91E"/>
<path d="M15.1709 48.8968C11.3732 50.2626 7.18735 48.3367 5.80681 44.593C4.43116 40.8494 6.38162 36.7077 10.1744 35.337C13.9574 33.9761 18.1531 35.902 19.5386 39.6457C20.9142 43.3943 18.9588 47.5359 15.1709 48.8968Z" fill="#FBB71E"/>
<path d="M15.0575 48.5875C11.4367 49.8894 7.44241 48.0519 6.12573 44.4802C4.81399 40.9085 6.67107 36.9584 10.2919 35.6516C13.903 34.3546 17.907 36.192 19.2286 39.7638C20.5355 43.3355 18.6686 47.2904 15.0575 48.5875Z" fill="#FBB51F"/>
<path d="M14.9399 48.2729C11.491 49.511 7.68837 47.7669 6.44047 44.3622C5.19258 40.9624 6.96125 37.204 10.4052 35.961C13.8443 34.7229 17.6519 36.4768 18.9096 39.8766C20.1575 43.2764 18.379 47.0397 14.9399 48.2729Z" fill="#FAB220"/>
<path d="M14.8271 47.9634C11.5551 49.1376 7.94402 47.4819 6.75508 44.2541C5.57106 41.0262 7.25129 37.4545 10.5184 36.2754C13.7806 35.1012 17.3966 36.7667 18.5904 39.9896C19.7794 43.2174 18.0893 46.7892 14.8271 47.9634Z" fill="#FAB020"/>
<path d="M14.7138 47.649C11.6137 48.7594 8.19922 47.1921 7.07414 44.1363C5.95399 41.0804 7.54088 37.7003 10.6361 36.585C13.7263 35.4747 17.1507 37.0468 18.2806 40.1027C19.4008 43.1586 17.8041 46.5387 14.7138 47.649Z" fill="#FAAE21"/>
<path d="M14.5958 47.3394C11.6725 48.3908 8.44962 46.9071 7.38351 44.0232C6.32722 41.1392 7.82567 37.9508 10.744 36.8994C13.6574 35.8529 16.8901 37.3366 17.9562 40.2205C19.0174 43.0995 17.5141 46.293 14.5958 47.3394Z" fill="#FAAC22"/>
<path d="M14.4829 47.025C11.7365 48.0125 8.70029 46.6222 7.70296 43.9053C6.70562 41.1982 8.12056 38.1964 10.8669 37.204C13.6084 36.2165 16.6446 37.6167 17.6468 40.3237C18.6392 43.0406 17.2243 46.0424 14.4829 47.025Z" fill="#F9A922"/>
<path d="M14.3701 46.7156C11.7957 47.6393 8.95597 46.3373 8.02251 43.7973C7.08904 41.2622 8.41063 38.452 10.985 37.5234C13.5545 36.5998 16.3991 37.9066 17.3375 40.4467C18.2611 42.9818 16.9346 45.792 14.3701 46.7156Z" fill="#F9A723"/>
<path d="M14.252 46.4012C11.8545 47.2609 9.20638 46.0474 8.33187 43.6794C7.46227 41.3162 8.69543 38.6976 11.093 37.828C13.4856 36.9682 16.1386 38.1867 17.0131 40.5547C17.8827 42.9228 16.6446 45.5463 14.252 46.4012Z" fill="#F9A524"/>
<path d="M14.1391 46.0916C11.9135 46.8924 9.45703 45.7624 8.6513 43.5663C7.84557 41.3751 8.98538 38.9432 11.211 38.1424C13.4316 37.3465 15.8881 38.4765 16.6988 40.6677C17.5045 42.8638 16.3598 45.2957 14.1391 46.0916Z" fill="#F9A324"/>
<path d="M14.021 45.782C11.9723 46.519 9.7074 45.4774 8.96554 43.4533C8.22368 41.4341 9.27506 39.1937 11.3238 38.4568C13.3676 37.7199 15.6324 38.7663 16.3841 40.7856C17.126 42.8048 16.0697 45.0451 14.021 45.782Z" fill="#F8A025"/>
<path d="M13.9082 45.4677C12.0314 46.1408 9.96303 45.1926 9.28017 43.3404C8.60213 41.4931 9.56512 39.4444 11.437 38.7664C13.3088 38.0933 15.382 39.0465 16.0649 40.8986C16.7478 42.7459 15.78 44.7946 13.9082 45.4677Z" fill="#F89E26"/>
<path d="M13.7954 45.1582C12.0955 45.7674 10.2187 44.9077 9.5997 43.2274C8.98558 41.5521 9.85518 39.695 11.5551 39.0809C13.255 38.4717 15.1317 39.3363 15.7557 41.0117C16.3698 42.687 15.4904 44.549 13.7954 45.1582Z" fill="#F89C26"/>
<path d="M13.6773 44.8437C12.1494 45.3939 10.4642 44.6177 9.90907 43.1094C9.35391 41.606 10.14 39.9405 11.663 39.3854C13.186 38.84 14.8712 39.6163 15.4313 41.1196C15.9913 42.6279 15.2003 44.2983 13.6773 44.8437Z" fill="#F89A27"/>
<path d="M13.5644 44.534C12.2134 45.0204 10.7198 44.3327 10.2285 43.0012C9.73722 41.6698 10.4349 40.191 11.7859 39.7046C13.137 39.2182 14.6305 39.9061 15.1218 41.2424C15.6082 42.5689 14.9106 44.0477 13.5644 44.534Z" fill="#F79728"/>
<path d="M13.4511 44.2197C12.272 44.6423 10.975 44.0478 10.5476 42.8834C10.1201 41.7239 10.7244 40.4367 11.9036 40.0142C13.0778 39.5917 14.3797 40.1911 14.812 41.3506C15.2296 42.51 14.6253 43.8021 13.4511 44.2197Z" fill="#F79528"/>
<path d="M13.3336 43.9103C12.3313 44.2689 11.221 43.7629 10.8574 42.7705C10.4939 41.7829 11.0097 40.6873 12.012 40.3238C13.0142 39.9651 14.1196 40.4761 14.4881 41.4636C14.8517 42.4511 14.3358 43.5516 13.3336 43.9103Z" fill="#F79329"/>
<path d="M15.4604 32.5464C15.0772 33.1752 14.2616 33.3816 13.6279 33.0033C12.9941 32.625 12.7877 31.8143 13.1562 31.1805C13.2446 31.0282 15.4162 27.4369 20.2162 27.4369C25.021 27.4369 27.1926 31.0282 27.2859 31.1805C27.6593 31.8143 27.4431 32.6397 26.8094 33.0131C26.5932 33.1408 26.3623 33.1998 26.1265 33.1998C25.6745 33.1998 25.2274 32.9689 24.9768 32.5513C24.913 32.4432 23.444 30.1144 20.2162 30.1144C16.9883 30.1095 15.5292 32.4432 15.4604 32.5464Z" fill="#2F2F2F"/>
<path d="M49.871 33.0083C49.6597 33.136 49.4239 33.195 49.1977 33.195C48.7359 33.195 48.2888 32.9542 48.0383 32.5366C47.9842 32.4384 46.5251 30.1096 43.2923 30.1096C40.0055 30.1096 38.5464 32.5121 38.5317 32.5366C38.1534 33.1704 37.3378 33.3866 36.6991 33.0083C36.0653 32.6349 35.8492 31.8095 36.2275 31.1757C36.3159 31.0234 38.4874 27.432 43.2923 27.432C48.0923 27.432 50.2591 31.0234 50.3476 31.1757C50.7209 31.8144 50.5048 32.6349 49.871 33.0083Z" fill="#2F2F2F"/>
<path d="M47.6404 39.3312C46.1222 38.3044 44.2111 38.9824 42.521 39.3312C37.8144 40.304 33.6777 40.3433 31.6928 40.3433C29.708 40.3433 25.5713 40.304 20.8646 39.3312C19.1746 38.9824 17.2634 38.3044 15.7453 39.3312C13.8194 40.6331 15.2393 45.3005 18.2706 48.4546C20.1031 50.3609 24.4658 54.0603 31.6928 54.0603C38.9198 54.0603 43.2825 50.3609 45.1151 48.4546C48.1464 45.3005 49.5615 40.6331 47.6404 39.3312Z" fill="#ED6C30"/>
</g>
<path d="M308.711 48.5824C308.711 53.1475 307.518 56.3877 305.656 58.7498C303.777 61.1341 301.074 62.8035 297.758 63.9546C291.028 66.2907 282.37 66.3128 274.621 66.3128C266.874 66.3128 258.096 66.2917 251.247 63.9517C247.868 62.7971 245.108 61.1233 243.19 58.7346C241.291 56.3724 240.075 53.1372 240.075 48.5824C240.075 40.0659 241.91 29.7005 247.139 21.534C252.29 13.4886 260.802 7.44794 274.621 7.44794C287.72 7.44794 296.137 13.4994 301.368 21.6069C306.665 29.8167 308.711 40.1936 308.711 48.5824Z" fill="#FBC546" stroke="black" stroke-width="4.07528"/>
<path fill-rule="evenodd" clip-rule="evenodd" d="M263.022 54.9766C258.893 52.3614 255.716 48.4329 254.792 43.8867H293.911C292.987 48.4329 289.81 52.3614 285.681 54.9766C283.657 52.5899 265.046 52.5899 263.022 54.9766Z" fill="#722245"/>
<path fill-rule="evenodd" clip-rule="evenodd" d="M263.021 54.9771C265.044 52.5899 268.052 51.1317 271.316 51.1317C273.29 51.1317 275.409 51.1317 277.384 51.1317C280.647 51.1317 283.656 52.5899 285.679 54.9771C282.303 57.1157 278.289 58.3764 274.35 58.3764C270.41 58.3764 266.396 57.1157 263.021 54.9771Z" fill="#CA3B8F"/>
<path fill-rule="evenodd" clip-rule="evenodd" d="M255.863 37.9329C256.201 38.2716 256.662 38.4618 257.142 38.4618C257.622 38.4618 258.081 38.2716 258.42 37.9329C258.427 37.9257 258.433 37.9221 258.433 37.9221C259.534 36.8208 261.027 36.2014 262.584 36.2014C264.142 36.2014 265.634 36.8208 266.736 37.9221C266.736 37.9221 266.741 37.9257 266.748 37.9329C267.087 38.2716 267.547 38.4618 268.027 38.4618C268.507 38.4618 268.967 38.2716 269.306 37.9329C269.308 37.9329 269.308 37.9311 269.308 37.9311C270.016 37.2247 270.016 36.0764 269.308 35.37C269.302 35.3628 269.299 35.3592 269.299 35.3592C267.518 33.5787 265.102 32.5789 262.584 32.5789C260.067 32.5789 257.651 33.5787 255.87 35.3592C255.87 35.3592 255.866 35.3628 255.861 35.37C255.153 36.0764 255.153 37.2247 255.861 37.9311C255.861 37.9311 255.861 37.9329 255.863 37.9329Z" fill="black"/>
<path fill-rule="evenodd" clip-rule="evenodd" d="M292.852 37.9329C292.513 38.2716 292.053 38.4618 291.573 38.4618C291.093 38.4618 290.633 38.2716 290.294 37.9329C290.287 37.9257 290.282 37.9221 290.282 37.9221C289.181 36.8208 287.688 36.2014 286.13 36.2014C284.573 36.2014 283.08 36.8208 281.979 37.9221C281.979 37.9221 281.974 37.9257 281.966 37.9329C281.627 38.2716 281.168 38.4618 280.688 38.4618C280.208 38.4618 279.748 38.2716 279.409 37.9329C279.407 37.9329 279.407 37.9311 279.407 37.9311C278.699 37.2247 278.699 36.0764 279.407 35.37C279.413 35.3628 279.416 35.3592 279.416 35.3592C281.197 33.5787 283.613 32.5789 286.13 32.5789C288.648 32.5789 291.064 33.5787 292.845 35.3592C292.845 35.3592 292.848 35.3628 292.854 35.37C293.562 36.0764 293.562 37.2247 292.854 37.9311C292.854 37.9311 292.854 37.9329 292.852 37.9329Z" fill="black"/>
<path fill-rule="evenodd" clip-rule="evenodd" d="M147.148 5.79529C155.486 5.79529 163.485 9.1086 169.382 15.0042C175.278 20.9017 178.591 28.9 178.591 37.2383V39.2035C178.591 55.4831 165.393 68.6814 149.113 68.6814H145.183C128.903 68.6814 115.705 55.4831 115.705 39.2035V37.2383C115.705 19.8719 129.782 5.79529 147.148 5.79529Z" fill="black"/>
<path fill-rule="evenodd" clip-rule="evenodd" d="M174.661 37.2383C174.661 29.9416 171.762 22.9435 166.601 17.7849C161.443 12.6243 154.445 9.72568 147.148 9.72568C131.953 9.72568 119.635 22.0435 119.635 37.2383V39.2035C119.635 53.3136 131.073 64.751 145.183 64.751H149.113C163.223 64.751 174.661 53.3136 174.661 39.2035V37.2383Z" fill="#FBC546"/>
<path fill-rule="evenodd" clip-rule="evenodd" d="M127.092 32.7302C127.459 33.0977 127.958 33.304 128.479 33.304C129 33.304 129.499 33.0977 129.867 32.7302C129.874 32.7223 129.88 32.7184 129.88 32.7184C131.075 31.5236 132.694 30.8515 134.385 30.8515C136.075 30.8515 137.694 31.5236 138.889 32.7184C138.889 32.7184 138.895 32.7223 138.902 32.7302C139.27 33.0977 139.769 33.304 140.29 33.304C140.811 33.304 141.31 33.0977 141.677 32.7302C141.679 32.7302 141.679 32.7282 141.679 32.7282C142.448 31.9618 142.448 30.7159 141.679 29.9494C141.673 29.9416 141.669 29.9376 141.669 29.9376C139.738 28.0059 137.116 26.9211 134.385 26.9211C131.653 26.9211 129.031 28.0059 127.1 29.9376C127.1 29.9376 127.096 29.9416 127.09 29.9494C126.321 30.7159 126.321 31.9618 127.09 32.7282C127.09 32.7282 127.09 32.7302 127.092 32.7302Z" fill="black"/>
<path fill-rule="evenodd" clip-rule="evenodd" d="M167.225 32.7302C166.857 33.0977 166.358 33.304 165.837 33.304C165.317 33.304 164.817 33.0977 164.45 32.7302C164.442 32.7223 164.436 32.7184 164.436 32.7184C163.241 31.5236 161.622 30.8515 159.932 30.8515C158.242 30.8515 156.623 31.5236 155.428 32.7184C155.428 32.7184 155.422 32.7223 155.414 32.7302C155.047 33.0977 154.547 33.304 154.027 33.304C153.506 33.304 153.007 33.0977 152.639 32.7302C152.637 32.7302 152.637 32.7282 152.637 32.7282C151.869 31.9618 151.869 30.7159 152.637 29.9494C152.643 29.9416 152.647 29.9376 152.647 29.9376C154.579 28.0059 157.2 26.9211 159.932 26.9211C162.664 26.9211 165.285 28.0059 167.217 29.9376C167.217 29.9376 167.221 29.9416 167.227 29.9494C167.995 30.7159 167.995 31.9618 167.227 32.7282C167.227 32.7282 167.227 32.7302 167.225 32.7302Z" fill="black"/>
<path fill-rule="evenodd" clip-rule="evenodd" d="M134.829 51.2364C130.348 48.3986 126.902 44.1361 125.899 39.2035H168.343C167.341 44.1361 163.894 48.3986 159.414 51.2364C157.219 48.6463 137.024 48.6463 134.829 51.2364Z" fill="#722245"/>
<path fill-rule="evenodd" clip-rule="evenodd" d="M134.865 51.2364C137.061 48.6462 140.325 47.0643 143.866 47.0643C146.008 47.0643 148.307 47.0643 150.449 47.0643C153.991 47.0643 157.255 48.6462 159.45 51.2364C155.787 53.5573 151.432 54.925 147.158 54.925C142.883 54.925 138.529 53.5573 134.865 51.2364Z" fill="#CA3B8F"/>
<path fill-rule="evenodd" clip-rule="evenodd" d="M91.5085 35.0275H99.2464V40.1861H91.5085V47.5556H87.8238V40.1861H80.0858V35.0275H87.8238V28.395H91.5085V35.0275Z" stroke="black" stroke-width="1.96519" stroke-miterlimit="1.41421" stroke-linejoin="round"/>
<path d="M99.2464 40.1861H80.0858V38.7122L81.5597 37.2383H97.7725L99.2464 38.6769V40.1861Z" fill="#747474"/>
<path d="M99.2464 38.7122H80.0858V35.0275H99.2464V38.7122Z" fill="white"/>
<path d="M89.2976 44.6078L87.8237 46.0787V47.5556H91.5085V46.0817L90.0346 44.6078H89.2976Z" fill="#747474"/>
<path d="M87.8237 28.395H91.5085V46.0817H87.8237V28.395Z" fill="white"/>
<path fill-rule="evenodd" clip-rule="evenodd" d="M217.404 35.2732H199.717V30.1145H217.404V35.2732Z" stroke="black" stroke-width="1.96519" stroke-miterlimit="1.41421" stroke-linejoin="round"/>
<path d="M217.404 35.2731H199.717V33.7639L201.191 32.3253H215.93L217.404 33.7639V35.2731Z" fill="#747474"/>
<path d="M217.404 33.7993H199.717V30.1145H217.404V33.7993Z" fill="white"/>
<path fill-rule="evenodd" clip-rule="evenodd" d="M217.404 45.5904H199.717V40.4318H217.404V45.5904Z" stroke="black" stroke-width="1.96519" stroke-miterlimit="1.41421" stroke-linejoin="round"/>
<path d="M217.404 45.5904H199.717V44.0811L201.191 42.6426H215.93L217.404 44.0811V45.5904Z" fill="#747474"/>
<path d="M217.404 44.1165H199.717V40.4318H217.404V44.1165Z" fill="white"/>
</g>
<defs>
<clipPath id="clip0_12_212">
<rect width="310.5" height="72.712" fill="white" transform="translate(0.25 0.882324)"/>
</clipPath>
</defs>
</svg>
