<svg width="580" height="580" viewBox="0 0 580 580" fill="none" xmlns="http://www.w3.org/2000/svg">
<g clip-path="url(#clip0_96_855)">
<path fill-rule="evenodd" clip-rule="evenodd" d="M336.155 3.6965L255.249 126.228L150.243 18.917L188.545 160.666L39.5355 136.644L144.541 243.955L33.8334 361.682L153.041 380.899L72.1348 503.431L198.443 478.601L243.845 576.304L317.65 497.819L399.955 556.279L391.455 419.334L510.663 438.552L442.56 291.998L575.968 223.123L426.959 199.101L507.865 76.5693L374.456 145.445L336.155 3.6965V3.6965Z" fill="#6E6E6E"/>
<g clip-path="url(#clip1_96_855)">
<path d="M193.355 178.389C196.113 188.777 195.355 196.87 192.546 203.368C189.71 209.929 184.569 215.36 177.718 219.982C163.817 229.363 144.13 234.643 126.497 239.324C108.871 244.003 88.8847 249.256 71.8881 248.068C63.5029 247.482 56.2126 245.34 50.4038 241.065C44.6582 236.836 39.9377 230.21 37.1865 219.846C32.0425 200.468 29.9555 175.776 36.9198 154.036C43.781 132.619 59.4993 113.733 90.9423 105.386C120.747 97.474 143.554 106.159 160.353 121.447C177.364 136.927 188.288 159.302 193.355 178.389Z" fill="#FBC546" stroke="black" stroke-width="9.59376"/>
<path fill-rule="evenodd" clip-rule="evenodd" d="M65.8973 185.174C66.8605 185.734 68.0079 185.886 69.0865 185.6C70.1652 185.314 71.0857 184.612 71.6448 183.649C71.6567 183.628 71.6668 183.617 71.6668 183.617C73.4846 180.485 76.4691 178.202 79.9697 177.273C83.4703 176.344 87.1939 176.846 90.3257 178.663C90.3257 178.663 90.34 178.668 90.3606 178.68C91.3239 179.239 92.4712 179.392 93.5499 179.106C94.6286 178.82 95.549 178.118 96.1081 177.155C96.1122 177.154 96.1111 177.149 96.1111 177.149C97.2812 175.14 96.5962 172.559 94.5832 171.394C94.5667 171.381 94.5564 171.375 94.5564 171.375C89.4929 168.436 83.4665 167.63 77.8086 169.132C72.1507 170.634 67.3172 174.323 64.3781 179.386C64.3781 179.386 64.3722 179.396 64.3643 179.416C63.1941 181.426 63.8792 184.006 65.8922 185.171C65.8922 185.171 65.8932 185.175 65.8973 185.174Z" fill="black"/>
<path fill-rule="evenodd" clip-rule="evenodd" d="M149.024 163.108C148.465 164.071 147.545 164.773 146.466 165.059C145.387 165.345 144.24 165.192 143.277 164.633C143.256 164.621 143.242 164.616 143.242 164.616C140.11 162.799 136.386 162.297 132.886 163.226C129.385 164.155 126.401 166.438 124.583 169.57C124.583 169.57 124.573 169.581 124.561 169.602C124.002 170.565 123.081 171.267 122.003 171.553C120.924 171.839 119.777 171.686 118.813 171.127C118.809 171.128 118.808 171.124 118.808 171.124C116.795 169.959 116.11 167.379 117.28 165.369C117.288 165.349 117.294 165.339 117.294 165.339C120.233 160.276 125.067 156.587 130.725 155.085C136.383 153.583 142.409 154.389 147.472 157.328C147.472 157.328 147.483 157.334 147.499 157.347C149.512 158.512 150.197 161.092 149.027 163.102C149.027 163.102 149.028 163.106 149.024 163.108Z" fill="black"/>
<path fill-rule="evenodd" clip-rule="evenodd" d="M92.1562 219.206C81.3153 215.792 71.8321 208.859 67.044 199.193L154.957 175.856C155.594 186.623 150.798 197.347 143.077 205.689C137.107 201.531 95.2788 212.635 92.1562 219.206Z" fill="#722245"/>
<path fill-rule="evenodd" clip-rule="evenodd" d="M92.1524 219.207C95.2749 212.635 101.166 207.564 108.501 205.617C112.938 204.439 117.7 203.175 122.137 201.997C129.472 200.05 137.103 201.532 143.074 205.69C136.762 212.511 128.494 217.738 119.641 220.089C110.788 222.439 101.016 222 92.1524 219.207Z" fill="#CA3B8F"/>
</g>
<g clip-path="url(#clip2_96_855)">
<path d="M364.61 515.978C363.226 524.563 359.999 530.295 355.782 534.172C351.525 538.086 345.937 540.406 339.351 541.566C325.987 543.919 309.698 541.336 295.125 538.986C280.557 536.638 264.055 533.936 251.885 527.459C245.881 524.264 241.199 520.279 238.314 515.206C235.461 510.188 234.155 503.736 235.536 495.17C237.375 483.762 240.567 475.087 246.92 465.69L362.608 484.341C365.907 495.387 366.43 504.684 364.61 515.978Z" fill="#FBC546" stroke="black" stroke-width="7.76274"/>
<path d="M277.954 502.382C283.334 503.249 288.398 499.591 289.265 494.212C290.132 488.833 286.474 483.769 281.095 482.901C275.715 482.034 270.652 485.692 269.784 491.071C268.917 496.451 272.575 501.515 277.954 502.382Z" fill="white"/>
<path d="M320.81 509.291C326.19 510.158 331.254 506.5 332.121 501.121C332.988 495.742 329.33 490.678 323.951 489.81C318.571 488.943 313.507 492.601 312.64 497.98C311.773 503.36 315.431 508.424 320.81 509.291Z" fill="white"/>
<path fill-rule="evenodd" clip-rule="evenodd" d="M285.358 493.645C285.608 492.094 285.232 490.507 284.314 489.235C283.392 487.963 282.007 487.109 280.456 486.859C278.905 486.609 277.322 486.985 276.047 487.903C274.775 488.821 273.92 490.21 273.67 491.761L273.658 491.831C273.409 493.381 273.785 494.965 274.703 496.236C275.625 497.512 277.01 498.367 278.561 498.617C280.111 498.867 281.695 498.491 282.971 497.569C284.242 496.651 285.097 495.266 285.347 493.715L285.358 493.645Z" fill="black"/>
<path fill-rule="evenodd" clip-rule="evenodd" d="M328.215 500.546C328.735 497.32 326.542 494.288 323.32 493.769L323.304 493.766C320.082 493.247 317.047 495.436 316.527 498.662L316.513 498.748C315.994 501.97 318.187 505.005 321.409 505.525L321.424 505.527C324.646 506.047 327.682 503.854 328.202 500.632L328.215 500.546Z" fill="black"/>
<path fill-rule="evenodd" clip-rule="evenodd" d="M317.704 522.992C318.113 524.297 317.82 525.721 316.925 526.756C316.027 527.79 314.664 528.286 313.312 528.068C304.371 526.627 288.108 524.005 279.167 522.564C277.815 522.346 276.677 521.447 276.149 520.182C275.625 518.919 275.794 517.475 276.592 516.365C278.041 514.348 279.751 511.973 281.405 509.669C285.645 503.777 292.843 500.784 300.008 501.939C307.173 503.094 313.066 508.198 315.239 515.124C316.086 517.831 316.963 520.622 317.704 522.992Z" fill="#5B2B02"/>
<path fill-rule="evenodd" clip-rule="evenodd" d="M283.425 523.25L279.167 522.564C277.815 522.346 276.677 521.447 276.149 520.183C275.625 518.919 275.794 517.475 276.592 516.365C278.041 514.348 279.751 511.973 281.405 509.669C285.645 503.777 292.843 500.784 300.008 501.939C307.173 503.095 313.066 508.198 315.239 515.124C316.086 517.831 316.963 520.622 317.704 522.992C318.113 524.297 317.82 525.721 316.926 526.756C316.027 527.791 314.664 528.286 313.312 528.068L309.054 527.382C303.19 525.221 298.939 524.64 295.997 524.166C292.92 523.666 288.222 523.076 283.425 523.25Z" fill="#722245"/>
<path fill-rule="evenodd" clip-rule="evenodd" d="M283.429 523.251C287.542 521.364 292.203 520.668 296.871 521.421C301.539 522.173 305.745 524.298 309.057 527.383L283.429 523.251Z" fill="#CA3B8F"/>
<path d="M303.718 419.646L301.793 418.261C296.529 414.475 289.43 414.482 284.175 418.279L282.761 419.3L282.355 419.593L282.246 419.671L282.219 419.691L282.211 419.697L282.21 419.698L282.209 419.698L282.209 419.698L282.209 419.698L283.598 421.621L282.209 419.698L279.098 421.946L282.499 423.723L293.967 429.717L295.79 430.669L296.991 428.999L302.333 421.571L303.718 419.646Z" fill="#FBC546" stroke="black" stroke-width="4.7439"/>
<path fill-rule="evenodd" clip-rule="evenodd" d="M346.04 435.157C345.224 440.221 341.211 438.986 336.147 438.17C331.083 437.354 326.886 437.264 327.702 432.201C328.519 427.137 333.285 423.694 338.349 424.51C343.413 425.326 346.856 430.093 346.04 435.157ZM341.363 434.403C340.963 436.883 338.628 438.57 336.147 438.17C333.667 437.77 331.98 435.435 332.38 432.955C332.78 430.474 335.115 428.787 337.595 429.187C340.076 429.587 341.762 431.922 341.363 434.403Z" fill="black"/>
<path fill-rule="evenodd" clip-rule="evenodd" d="M247.13 466.52L247.886 461.834C248.595 457.437 251.022 453.507 254.626 450.898L254.63 450.896C258.239 448.289 261.402 447.443 265.797 448.152L270.914 451.594L268.391 469.947L247.13 466.52ZM257.404 454.737C256.144 455.648 255.085 456.784 254.271 458.073C253.411 459.435 252.824 460.968 252.563 462.589L252.562 462.596L264.468 464.516L266.387 452.61L266.379 452.608C264.759 452.347 263.119 452.422 261.556 452.81C260.075 453.178 258.664 453.826 257.404 454.737Z" fill="black"/>
<path fill-rule="evenodd" clip-rule="evenodd" d="M313.246 425.262L304.143 439.98L282.707 426.813L287.232 440.491L263.762 439.945L281.918 452.584L266.762 463.089L286.443 466.262L275.077 474.142L334.122 483.66L325.807 472.608L345.489 475.781L334.402 461.045L355.61 454.752L333.157 447.895L341.752 436.331L317.264 442.095L313.246 425.262Z" fill="#F30800"/>
<path fill-rule="evenodd" clip-rule="evenodd" d="M314.753 415.906L322.227 434.045L358.066 425.609L344.2 444.264L378.168 454.735L345.551 464.723L360.835 485.04L341.154 481.867L340.694 484.72L268.501 473.082L268.961 470.229L249.279 467.056L270.175 452.572L241.672 432.73L277.886 433.573L270.585 411.506L301.957 430.777L314.753 415.906ZM304.141 439.98L282.705 426.812L287.231 440.491L263.76 439.945L281.916 452.583L266.76 463.089L286.442 466.262L275.075 474.141L334.12 483.66L325.805 472.608L345.487 475.781L334.401 461.044L355.608 454.751L333.155 447.895L341.75 436.331L317.262 442.095L313.245 425.261L304.141 439.98Z" fill="black"/>
<path fill-rule="evenodd" clip-rule="evenodd" d="M311.231 437.752L303.088 446.182L290.882 437.719L295.964 448.281L279.432 445.616L291.637 454.079L280.187 461.975L293.413 464.107L285.269 472.537L299.005 471.504L304.598 478.9L312.232 473.636L321.641 478.4L319.865 468.372L333.091 470.504L324.702 459.409L338.949 455.211L322.416 452.545L330.56 444.116L316.314 448.314L311.231 437.752Z" fill="#FFA32B"/>
<path d="M336.149 438.17C338.629 438.57 340.964 436.883 341.364 434.403C341.764 431.922 340.077 429.587 337.597 429.187C335.116 428.788 332.781 430.474 332.381 432.955C331.981 435.435 333.668 437.77 336.149 438.17Z" fill="#FBC546"/>
<path fill-rule="evenodd" clip-rule="evenodd" d="M252.562 462.597L252.564 462.589C253.072 459.434 254.814 456.612 257.405 454.737C259.995 452.866 263.225 452.1 266.38 452.609L266.388 452.61L264.469 464.516L252.562 462.597Z" fill="#FBC546"/>
<path fill-rule="evenodd" clip-rule="evenodd" d="M361.417 470.025L356.602 476.72L346.266 471.318C346.266 471.318 347.002 470.786 348.038 470.038C352.029 467.155 357.42 467.15 361.417 470.025Z" fill="#FBC546"/>
<path fill-rule="evenodd" clip-rule="evenodd" d="M364.183 466.178L368.03 468.944L358.049 482.822L342.685 469.175L343.492 467.477L346.266 471.318L356.602 476.72L361.417 470.025L361.416 470.024C360.059 469.048 358.54 468.404 356.971 468.092C355.01 467.702 352.969 467.831 351.061 468.478C350 468.837 348.98 469.358 348.038 470.038L346.266 471.318L343.492 467.477L345.263 466.197C350.908 462.12 358.531 462.113 364.183 466.178Z" fill="black"/>
<path d="M291.484 454.702L290.098 455.703L290.609 457.334L293.323 465.988L294.032 468.251L296.295 467.541L304.949 464.828L308.088 463.844L306.162 461.177L299.444 451.877L298.056 449.955L296.133 451.343L291.484 454.702Z" fill="#FBC546" stroke="black" stroke-width="4.74285"/>
</g>
<g clip-path="url(#clip3_96_855)">
<path d="M550.821 330.813C552.526 337.947 551.871 343.456 549.845 347.842C547.799 352.271 544.199 355.888 539.446 358.926C529.803 365.091 516.282 368.36 504.172 371.254C492.067 374.148 478.341 377.394 466.765 376.295C461.054 375.753 456.116 374.168 452.225 371.153C448.377 368.17 445.269 363.569 443.567 356.452C440.386 343.143 439.381 326.261 444.501 311.546C449.545 297.05 460.589 284.431 482.184 279.269C502.653 274.376 518.067 280.688 529.269 291.403C540.613 302.254 547.687 317.705 550.821 330.813Z" fill="#FBC546" stroke="black" stroke-width="6.54764"/>
<path fill-rule="evenodd" clip-rule="evenodd" d="M480.997 356.728C475.993 354.21 471.6 350.122 468.894 344.296L522.187 331.556C522.409 337.977 520.339 343.609 517.015 348.118C512.866 345.53 483.527 352.543 480.997 356.728Z" fill="#722245"/>
<path fill-rule="evenodd" clip-rule="evenodd" d="M481.006 356.725C483.537 352.541 487.674 349.41 492.65 348.221C495.95 347.432 499.493 346.585 502.794 345.796C507.77 344.607 512.875 345.528 517.025 348.115C512.853 353.777 506.698 357.668 500.618 359.122C494.537 360.575 487.288 359.888 481.006 356.725Z" fill="#CA3B8F"/>
<path fill-rule="evenodd" clip-rule="evenodd" d="M506.803 295.517C506.828 295.206 506.906 294.903 507.034 294.622C507.195 294.267 507.434 293.951 507.728 293.698C507.968 293.493 508.243 293.331 508.54 293.222C508.789 293.127 509.055 293.073 509.323 293.057C509.611 293.043 509.9 293.073 510.178 293.151C510.486 293.234 510.779 293.375 511.038 293.56C511.325 293.77 511.564 294.033 511.751 294.334L515.861 301.054L530.699 297.507L532.086 303.306C532.334 304.159 532.146 305.097 531.551 305.796C528.038 309.901 524.092 314.513 524.092 314.513L526.516 318.483L528.952 319.044L530.369 324.97C530.606 325.816 530.418 326.744 529.825 327.437C529.072 328.318 527.837 328.613 526.767 328.168C521.776 326.096 516.171 323.767 516.171 323.767C516.171 323.767 512.225 328.379 508.712 332.484C507.959 333.365 506.723 333.66 505.653 333.215C504.811 332.866 504.224 332.123 504.053 331.261L502.636 325.334L504.539 323.919L504.922 319.096C504.922 319.096 499.317 316.767 494.327 314.694C493.52 314.359 492.947 313.661 492.752 312.846L491.335 306.917L506.176 303.369L506.803 295.517ZM461.378 306.375C461.403 306.065 461.481 305.761 461.609 305.481C461.771 305.125 462.009 304.809 462.304 304.556C462.543 304.352 462.818 304.19 463.115 304.081C463.365 303.986 463.63 303.932 463.899 303.916C464.187 303.901 464.476 303.931 464.753 304.009C465.061 304.092 465.354 304.234 465.613 304.418C465.9 304.628 466.139 304.891 466.326 305.192L470.436 311.912L485.275 308.365L486.661 314.164C486.91 315.017 486.721 315.955 486.126 316.655C482.613 320.76 478.667 325.372 478.667 325.372L481.092 329.341L483.527 329.902L484.944 335.828C485.182 336.674 484.994 337.603 484.401 338.295C483.648 339.176 482.412 339.472 481.342 339.027C476.352 336.954 470.747 334.625 470.747 334.625C470.747 334.625 466.801 339.237 463.287 343.342C462.534 344.224 461.299 344.519 460.229 344.074C459.386 343.724 458.799 342.981 458.628 342.119L457.211 336.193L459.114 334.778L459.498 329.954C459.498 329.954 453.893 327.625 448.902 325.553C448.096 325.218 447.522 324.519 447.327 323.704L445.91 317.775L460.752 314.227L461.378 306.375Z" fill="#D69200"/>
<path fill-rule="evenodd" clip-rule="evenodd" d="M505.355 289.461C505.447 288.306 506.272 287.34 507.399 287.071C508.525 286.802 509.699 287.29 510.303 288.278C513.121 292.887 516.29 298.068 516.29 298.068C516.29 298.068 522.195 296.656 527.449 295.4C528.575 295.131 529.748 295.616 530.352 296.605C530.957 297.594 530.856 298.86 530.103 299.741C526.59 303.846 522.644 308.458 522.644 308.458C522.644 308.458 525.809 313.637 528.626 318.246C529.231 319.234 529.13 320.501 528.377 321.382C527.624 322.263 526.389 322.558 525.319 322.113C520.329 320.04 514.723 317.711 514.723 317.711C514.723 317.711 510.777 322.323 507.264 326.429C506.511 327.31 505.275 327.605 504.205 327.16C503.135 326.714 502.473 325.631 502.565 324.475C502.994 319.091 503.475 313.04 503.475 313.04C503.475 313.04 497.869 310.712 492.879 308.639C491.809 308.194 491.147 307.11 491.239 305.955C491.331 304.799 492.157 303.837 493.284 303.568C498.538 302.312 504.443 300.9 504.443 300.9C504.443 300.9 504.926 294.846 505.355 289.461ZM459.93 300.32C460.022 299.164 460.848 298.199 461.974 297.929C463.101 297.66 464.274 298.148 464.878 299.137C467.696 303.746 470.865 308.927 470.865 308.927C470.865 308.927 476.77 307.515 482.024 306.259C483.151 305.99 484.323 306.475 484.928 307.463C485.532 308.452 485.432 309.718 484.679 310.599C481.165 314.705 477.219 319.317 477.219 319.317C477.219 319.317 480.384 324.495 483.202 329.104C483.806 330.093 483.706 331.359 482.953 332.24C482.2 333.121 480.964 333.417 479.894 332.971C474.904 330.899 469.299 328.57 469.299 328.57C469.299 328.57 465.353 333.182 461.839 337.287C461.086 338.168 459.851 338.464 458.781 338.018C457.711 337.573 457.048 336.489 457.14 335.334C457.569 329.949 458.05 323.899 458.05 323.899C458.05 323.899 452.445 321.57 447.455 319.498C446.385 319.052 445.722 317.968 445.814 316.813C445.906 315.658 446.732 314.695 447.859 314.426C453.113 313.17 459.018 311.758 459.018 311.758C459.018 311.758 459.501 305.704 459.93 300.32Z" fill="#FFF9EF"/>
</g>
<g clip-path="url(#clip4_96_855)">
<path d="M202.954 522.846C200.037 533.057 195.297 539.542 189.625 543.635C183.897 547.768 176.786 549.775 168.632 550.23C152.087 551.156 132.707 545.673 115.374 540.721C98.0468 535.772 78.4259 530.114 64.6025 520.504C57.7828 515.763 52.6798 510.255 49.9138 503.687C47.1779 497.191 46.5256 489.178 49.436 478.99C54.8778 459.941 65.6039 437.929 82.5172 423.004C99.1796 408.3 122.078 400.227 152.987 409.057C182.286 417.427 197.246 436.341 203.766 457.818C210.367 479.565 208.314 504.083 202.954 522.846Z" fill="#FBC546" stroke="black" stroke-width="9.47986"/>
<path fill-rule="evenodd" clip-rule="evenodd" d="M91.363 455.975C91.942 457.017 92.9128 457.786 94.0614 458.114C95.2099 458.442 96.4408 458.302 97.4828 457.723C97.5051 457.711 97.5206 457.706 97.5206 457.706C100.909 455.823 104.903 455.361 108.631 456.426C112.358 457.491 115.506 459.993 117.388 463.381C117.388 463.381 117.399 463.394 117.411 463.416C117.99 464.458 118.961 465.228 120.11 465.556C121.258 465.884 122.489 465.743 123.531 465.164C123.535 465.166 123.537 465.161 123.537 465.161C125.714 463.955 126.499 461.207 125.287 459.033C125.279 459.012 125.273 459 125.273 459C122.23 453.523 117.131 449.479 111.107 447.758C105.083 446.037 98.6173 446.777 93.1398 449.821C93.1398 449.821 93.1286 449.827 93.1107 449.841C90.9331 451.047 90.1481 453.795 91.3599 455.969C91.3599 455.969 91.3587 455.973 91.363 455.975Z" fill="black"/>
<path fill-rule="evenodd" clip-rule="evenodd" d="M179.877 481.261C178.835 481.84 177.604 481.981 176.455 481.652C175.307 481.324 174.336 480.555 173.757 479.513C173.745 479.49 173.734 479.478 173.734 479.478C171.852 476.09 168.704 473.588 164.976 472.523C161.249 471.458 157.254 471.92 153.866 473.802C153.866 473.802 153.851 473.807 153.829 473.82C152.787 474.399 151.556 474.539 150.407 474.211C149.259 473.883 148.288 473.113 147.709 472.071C147.704 472.07 147.706 472.066 147.706 472.066C146.494 469.891 147.279 467.144 149.456 465.937C149.474 465.924 149.486 465.918 149.486 465.918C154.963 462.874 161.428 462.133 167.453 463.855C173.477 465.576 178.576 469.62 181.619 475.097C181.619 475.097 181.625 475.108 181.633 475.129C182.845 477.304 182.06 480.052 179.882 481.258C179.882 481.258 179.881 481.262 179.877 481.261Z" fill="black"/>
<path fill-rule="evenodd" clip-rule="evenodd" d="M163.742 501.43L124.116 508.862C124.116 508.862 124.949 513.314 125.974 518.768C128.028 529.71 138.56 536.92 149.503 534.865C160.445 532.811 167.654 522.279 165.6 511.337C164.575 505.883 163.742 501.43 163.742 501.43Z" fill="#DD34A2"/>
<path d="M88.2017 470.477C88.2017 470.477 88.4642 471.101 88.9038 472.154C95.5052 487.921 108.913 499.833 125.348 504.528C125.352 504.529 125.352 504.529 125.357 504.531C141.792 509.226 159.469 506.194 173.402 496.293C174.332 495.631 174.885 495.24 174.885 495.24" stroke="#593604" stroke-width="9.01904" stroke-miterlimit="1.5" stroke-linecap="round"/>
</g>
<g clip-path="url(#clip5_96_855)">
<path d="M559.02 482.529C561.448 492.9 560.46 500.895 557.487 507.25C554.486 513.666 549.234 518.895 542.312 523.274C528.267 532.159 508.611 536.813 491.007 540.934C473.409 545.053 453.457 549.672 436.654 547.998C428.365 547.172 421.206 544.837 415.577 540.432C410.009 536.074 405.527 529.372 403.105 519.025C398.581 499.699 398.055 478.713 406.175 460.9C414.179 443.341 430.959 428.047 462.836 420.586C493.077 413.507 514.702 419.856 529.874 432.118C545.243 444.541 554.567 463.507 559.02 482.529Z" fill="#FBC546" stroke="black" stroke-width="9.50779"/>
<path d="M455.165 509.091C455.165 509.091 455.307 509.322 455.547 509.715C459.782 516.593 467.938 519.989 475.803 518.148L482.162 507.401L493.358 514.039C501.223 512.198 507.024 505.535 507.766 497.491C507.807 497.033 507.832 496.763 507.832 496.763" stroke="#593604" stroke-width="9.0456" stroke-miterlimit="1.5" stroke-linecap="round"/>
<path fill-rule="evenodd" clip-rule="evenodd" d="M493.507 481.362L507.701 482.668C510.176 482.899 512.373 481.07 512.603 478.595C512.829 476.117 511.004 473.919 508.526 473.693L494.332 472.387C491.856 472.156 489.66 473.985 489.429 476.46C489.204 478.938 491.028 481.136 493.507 481.362Z" fill="black"/>
<path fill-rule="evenodd" clip-rule="evenodd" d="M456.446 481.254L444.307 488.725C442.186 490.027 441.526 492.806 442.828 494.927C444.134 497.043 446.914 497.707 449.03 496.401L461.169 488.931C463.29 487.629 463.95 484.849 462.648 482.728C461.342 480.613 458.562 479.949 456.446 481.254Z" fill="black"/>
<path fill-rule="evenodd" clip-rule="evenodd" d="M538.695 372.991L552.296 431.096L535.274 445.254C533.451 446.767 531.304 447.834 528.996 448.374C523.441 449.674 499.419 455.297 485.596 458.533C480.348 459.761 474.825 458.855 470.242 456.011C469.289 455.42 468.391 454.753 467.562 454.022L421.815 476.042C419.328 465.417 414.231 453.816 421.033 443.831C422.096 442.261 423.384 440.847 424.84 439.639C435.502 430.773 446.165 421.911 456.827 413.044L504.574 401.867L519.743 377.428L538.695 372.991Z" fill="black"/>
<path fill-rule="evenodd" clip-rule="evenodd" d="M461.487 422.398L515.948 409.649L538.689 425.215L539.512 428.506L528.775 437.432C528.167 437.935 527.451 438.291 526.684 438.47L493.185 446.311C491.101 446.799 484.883 448.192 481.083 447.196C474.937 445.59 471.073 441.043 471.073 441.043L471.071 441.033L428.832 461.375L427.946 457.592C427.069 453.844 428.385 449.917 431.35 447.458C440.945 439.478 461.487 422.398 461.487 422.398Z" fill="#FBC546"/>
<path fill-rule="evenodd" clip-rule="evenodd" d="M510.999 410.808L526.167 386.369L531.118 385.21L540.969 427.293L539.514 428.506L510.999 410.808Z" fill="#E59A10"/>
<path fill-rule="evenodd" clip-rule="evenodd" d="M471.077 441.053L471.075 441.043C469.795 435.577 473.188 430.104 478.659 428.823L503.414 423.028L505.732 432.93L480.977 438.725C480.977 438.725 480.978 438.73 480.979 438.735C482.259 444.201 487.726 447.59 493.187 446.311L483.285 448.629C480.661 449.244 477.902 448.793 475.611 447.371C473.325 445.947 471.691 443.677 471.077 441.053Z" fill="#7E5108"/>
<path d="M416.778 425.814L416.772 425.811L404.553 418.227C399.653 415.186 393.208 416.695 390.167 421.594L390.164 421.6C387.132 426.498 388.632 432.936 393.535 435.979L405.749 443.56C405.75 443.561 405.751 443.562 405.753 443.562C405.753 443.563 405.754 443.563 405.754 443.563C410.655 446.609 417.1 445.1 420.14 440.196C423.182 435.294 421.669 428.859 416.778 425.814ZM403.427 468.141L413.329 465.823C418.946 464.508 422.435 458.886 421.121 453.269C419.806 447.652 414.184 444.163 408.567 445.477L398.665 447.795C393.048 449.11 389.559 454.732 390.873 460.349C392.188 465.966 397.81 469.455 403.427 468.141ZM419.736 427.482C421.051 433.098 426.673 436.588 432.29 435.273C437.907 433.958 441.396 428.336 440.081 422.719L437.763 412.817C436.449 407.2 430.826 403.711 425.21 405.026C419.593 406.34 416.103 411.963 417.418 417.58L419.736 427.482Z" fill="white" stroke="black" stroke-width="10.7255"/>
</g>
<g clip-path="url(#clip6_96_855)">
<path d="M545.791 220.063C543.585 230.318 539.339 237.02 534.017 241.427C528.643 245.875 521.766 248.319 513.759 249.303C497.514 251.299 478.055 247.167 460.647 243.423C443.245 239.68 423.537 235.391 409.283 226.826C402.25 222.6 396.86 217.507 393.703 211.215C390.581 204.991 389.413 197.137 391.613 186.905C395.727 167.775 404.855 145.377 420.546 129.558C436.004 113.974 458.042 104.517 489.085 111.193C518.509 117.521 534.494 135.181 542.327 155.92C550.26 176.921 549.844 201.22 545.791 220.063Z" fill="#FBC546" stroke="black" stroke-width="9.36371"/>
<path d="M415.305 209.305C411.623 207.13 407.65 205.492 403.516 204.437C394.767 202.555 393.161 213.607 413.023 225.328L414.027 225.108L421.277 212.835C421.277 212.835 418.315 211.087 415.305 209.305Z" fill="#E59A10"/>
<path d="M544.257 211.012C545.175 211.748 545.856 186.048 544.771 187.43L536.724 185.7L527.965 196.632C534.231 200.331 539.834 205.357 544.257 211.012Z" fill="#E59A10"/>
<path d="M501.927 120.063C520.271 127.239 532.872 141.257 539.44 158.285C510.653 156.94 494.787 133.066 501.927 120.063Z" fill="#E59A10"/>
<path d="M515.616 188.587C516.97 190.676 516.369 193.47 514.276 194.818C512.187 196.171 509.393 195.57 508.045 193.478C505.489 189.521 501.843 183.877 501.843 183.877C501.843 183.877 496.108 187.582 492.146 190.141C491.166 190.774 489.976 190.993 488.839 190.749C487.702 190.504 486.706 189.815 486.073 188.835C485.405 187.806 485.176 186.554 485.434 185.355C485.692 184.157 486.415 183.109 487.448 182.446C493.504 178.533 504.523 171.415 504.523 171.415C504.523 171.415 511.719 182.548 515.616 188.587Z" fill="black"/>
<path d="M462.734 177.232C463.38 178.233 463.602 179.452 463.351 180.62C463.1 181.787 462.397 182.807 461.395 183.454C461.394 183.458 461.39 183.458 461.39 183.458C459.301 184.811 456.507 184.21 455.159 182.117C452.603 178.16 448.957 172.517 448.957 172.517C448.957 172.517 443.222 176.221 439.26 178.781C438.28 179.414 437.089 179.633 435.953 179.388C434.816 179.144 433.82 178.455 433.187 177.475C432.519 176.446 432.29 175.194 432.548 173.995C432.806 172.796 433.529 171.748 434.562 171.085C440.617 167.173 451.637 160.054 451.637 160.054C451.637 160.054 458.832 171.192 462.734 177.232Z" fill="black"/>
<path fill-rule="evenodd" clip-rule="evenodd" d="M456.709 202.468C456.643 202.772 456.629 203.092 456.663 203.406C456.957 206.097 458.46 219.715 459.429 228.479C459.924 232.985 463.251 236.668 467.683 237.621C472.968 238.758 480.153 240.303 485.994 241.559C491.681 242.782 497.278 239.167 498.501 233.48C498.501 233.48 486.772 211.104 481.7 201.435C480.249 198.668 477.644 196.686 474.587 196.029C472.806 195.646 470.712 195.195 468.643 194.75C463.218 193.584 457.878 197.034 456.711 202.458C456.71 202.463 456.71 202.463 456.709 202.468Z" fill="#5462CB"/>
<path fill-rule="evenodd" clip-rule="evenodd" d="M508.797 235.688C509.384 232.96 508.861 230.107 507.346 227.762C505.832 225.417 503.445 223.768 500.718 223.181C493.06 221.534 482.643 219.294 474.985 217.647C472.257 217.06 469.404 217.583 467.059 219.098C464.714 220.613 463.065 222.999 462.478 225.726C461.891 228.454 462.414 231.307 463.929 233.652C465.444 235.997 467.83 237.647 470.557 238.233C478.216 239.88 488.632 242.12 496.29 243.767C499.018 244.354 501.871 243.832 504.216 242.317C506.561 240.802 508.211 238.416 508.797 235.688Z" fill="#2438B9"/>
<path fill-rule="evenodd" clip-rule="evenodd" d="M402.055 116.084L417.711 100.874C423.662 110.086 433.021 116.551 443.74 118.856C447.64 119.695 450.677 120.348 450.677 120.348L435.021 135.558C423.444 133.068 412.859 127.207 404.61 118.714C403.085 117.141 402.055 116.084 402.055 116.084Z" fill="#F229A2"/>
<path fill-rule="evenodd" clip-rule="evenodd" d="M559.71 191.102L564.01 171.107C564.01 171.107 560.667 171.476 556.617 171.923C547.632 172.912 538.62 170.298 531.566 164.646C531.012 164.206 530.685 163.94 530.685 163.94L526.385 183.935C526.385 183.935 526.712 184.2 527.266 184.64C534.32 190.293 543.332 192.907 552.317 191.918C556.367 191.471 559.71 191.102 559.71 191.102Z" fill="#F229A2"/>
<path fill-rule="evenodd" clip-rule="evenodd" d="M536.704 151.304L540.963 131.501L534.831 130.182C526.078 128.3 518.43 123.016 513.575 115.5C511.995 113.054 510.798 111.201 510.798 111.201L506.539 131.004C506.539 131.004 507.736 132.857 509.316 135.303C514.171 142.818 521.819 148.103 530.572 149.985C533.991 150.72 536.704 151.304 536.704 151.304Z" fill="#F229A2"/>
<path fill-rule="evenodd" clip-rule="evenodd" d="M381.745 210.524L392.39 192.505C405.045 195.227 418.228 194.143 430.264 189.387C432.491 188.505 433.993 187.914 433.993 187.914L423.348 205.933C423.348 205.933 421.847 206.524 419.62 207.405C407.583 212.161 394.401 213.246 381.745 210.524Z" fill="#F229A2"/>
<path fill-rule="evenodd" clip-rule="evenodd" d="M443.48 143.833C437.91 145.226 432.029 145.534 426.152 144.631C425.83 144.581 425.507 144.532 425.19 144.483C422.244 144.03 419.594 142.422 417.829 140.017C416.065 137.612 415.326 134.601 415.779 131.654C418.489 114.018 423.469 81.6139 423.469 81.6139L430.364 90.4478L447.458 133.614L443.48 143.833Z" fill="#8012DA"/>
<path fill-rule="evenodd" clip-rule="evenodd" d="M443.48 143.833L423.469 81.6139C423.469 81.6139 451.545 101.494 466.164 111.845C470.932 115.224 472.063 121.823 468.684 126.591C468.684 126.591 468.684 126.591 468.683 126.597C462.499 135.322 453.495 141.326 443.48 143.833Z" fill="#982EEE"/>
<path fill-rule="evenodd" clip-rule="evenodd" d="M504.96 238.499C504.96 238.499 505.509 239.889 506.315 241.939C510.515 252.564 519.739 260.384 530.908 262.786L530.914 262.787L546.679 247.471L546.673 247.47C535.504 245.068 526.28 237.247 522.08 226.623C521.274 224.573 520.725 223.183 520.725 223.183L504.96 238.499Z" fill="#F229A2"/>
</g>
<g clip-path="url(#clip7_96_855)">
<mask id="mask0_96_855" style="mask-type:luminance" maskUnits="userSpaceOnUse" x="30" y="259" width="137" height="137">
<path fill-rule="evenodd" clip-rule="evenodd" d="M30.6378 280.989L145.335 259.365L166.959 374.063L52.2616 395.687L30.6378 280.989Z" fill="white"/>
</mask>
<g mask="url(#mask0_96_855)">
<path fill-rule="evenodd" clip-rule="evenodd" d="M58.0823 387.166C58.0823 387.166 60.444 346.95 61.619 326.919C61.9999 320.415 66.7596 315.008 73.1611 313.801L73.1647 313.8C95.3551 309.617 116.736 324.215 120.92 346.405L120.92 346.409C122.127 352.81 118.825 359.212 112.906 361.935C94.6776 370.323 58.0823 387.166 58.0823 387.166Z" stroke="black" stroke-width="14.8503" stroke-miterlimit="1.5" stroke-linecap="round" stroke-linejoin="round"/>
<path d="M95.8922 331.786C95.8922 331.786 101.619 327.433 106.862 323.449C112.354 319.27 116.192 313.283 117.686 306.543C117.866 305.741 118.049 304.923 118.229 304.106C120.148 295.463 127.031 288.798 135.73 287.158" stroke="black" stroke-width="22.2754" stroke-miterlimit="1.5" stroke-linecap="square" stroke-linejoin="round"/>
<path d="M78.8523 320.152C78.8523 320.152 78.4151 317.833 77.9468 315.349C77.2595 311.704 78.6921 307.982 81.6463 305.736L81.6528 305.731C83.8142 304.084 85.2368 301.648 85.605 298.954C85.9695 296.262 85.2543 293.531 83.6071 291.37C81.6272 288.762 79.9392 286.542 79.9392 286.542" stroke="black" stroke-width="22.2754" stroke-miterlimit="1.5" stroke-linecap="square" stroke-linejoin="round"/>
<path d="M117.972 340.614L121.954 339.864C126.406 339.024 130.992 339.232 135.35 340.474C139.633 341.694 144.413 343.053 144.413 343.053" stroke="black" stroke-width="22.2754" stroke-miterlimit="1.5" stroke-linecap="square" stroke-linejoin="round"/>
<path fill-rule="evenodd" clip-rule="evenodd" d="M90.4862 303.112L96.3033 294.592L104.823 300.409L99.0063 308.929L90.4862 303.112Z" stroke="black" stroke-width="14.8503" stroke-miterlimit="1.5" stroke-linecap="round" stroke-linejoin="round"/>
<path fill-rule="evenodd" clip-rule="evenodd" d="M102.119 286.071L103.676 274.642L115.105 276.199L113.548 287.628L102.119 286.071Z" stroke="black" stroke-width="14.8503" stroke-miterlimit="1.5" stroke-linecap="round" stroke-linejoin="round"/>
<path fill-rule="evenodd" clip-rule="evenodd" d="M114.49 331.992L116.048 320.563L127.476 322.12L125.919 333.549L114.49 331.992Z" stroke="black" stroke-width="14.8503" stroke-miterlimit="1.5" stroke-linecap="round" stroke-linejoin="round"/>
<path fill-rule="evenodd" clip-rule="evenodd" d="M52.6172 299.116L58.4343 290.596L66.9543 296.413L61.1373 304.933L52.6172 299.116Z" stroke="black" stroke-width="14.8503" stroke-miterlimit="1.5" stroke-linecap="round" stroke-linejoin="round"/>
<path fill-rule="evenodd" clip-rule="evenodd" d="M132.618 310.015L138.435 301.495L146.955 307.312L141.138 315.832L132.618 310.015Z" stroke="black" stroke-width="14.8503" stroke-miterlimit="1.5" stroke-linecap="round" stroke-linejoin="round"/>
<path fill-rule="evenodd" clip-rule="evenodd" d="M89.1345 295.943L105.704 285.396L127.21 281.341L133.292 313.6L75.9433 324.412L70.5373 295.738L89.1345 295.943Z" fill="black"/>
<path fill-rule="evenodd" clip-rule="evenodd" d="M63.9592 319.905L118.586 357.202C117.181 359.203 115.248 360.86 112.905 361.936C94.6769 370.324 58.0815 387.167 58.0815 387.167C58.0815 387.167 60.4432 346.951 61.6182 326.92C61.7676 324.346 62.6061 321.942 63.9592 319.905Z" fill="#E4AB1B"/>
<path fill-rule="evenodd" clip-rule="evenodd" d="M63.9589 319.905C66.0228 316.795 69.2927 314.531 73.1602 313.802L73.1637 313.801C95.3541 309.618 116.735 324.216 120.919 346.406L120.919 346.409C121.649 350.277 120.73 354.147 118.585 357.201L115.636 357.758C104.227 359.908 92.4333 357.44 82.8476 350.892C73.2589 344.349 66.666 334.264 64.5151 322.855L63.9589 319.905Z" fill="#5E3D05"/>
<path d="M95.8912 331.786C95.8912 331.786 101.618 327.433 106.861 323.449C112.353 319.27 116.191 313.283 117.686 306.543C117.865 305.741 118.048 304.923 118.228 304.106C120.147 295.463 127.03 288.799 135.73 287.159" stroke="#37CBE8" stroke-width="7.42513" stroke-miterlimit="1.5" stroke-linecap="square" stroke-linejoin="round"/>
<path d="M78.8514 320.152C78.8514 320.152 78.4142 317.833 77.9459 315.349C77.2586 311.704 78.6912 307.982 81.6454 305.736L81.6519 305.731C83.8133 304.084 85.2359 301.648 85.6041 298.955C85.9686 296.262 85.2534 293.531 83.6062 291.37C81.6263 288.762 79.9382 286.542 79.9382 286.542" stroke="#F2C618" stroke-width="7.42513" stroke-miterlimit="1.5" stroke-linecap="square" stroke-linejoin="round"/>
<path d="M117.971 340.614L121.953 339.864C126.405 339.024 130.991 339.232 135.349 340.475C139.632 341.694 144.412 343.053 144.412 343.053" stroke="#FF4586" stroke-width="7.42513" stroke-miterlimit="1.5" stroke-linecap="square" stroke-linejoin="round"/>
<path fill-rule="evenodd" clip-rule="evenodd" d="M90.4853 303.112L96.3024 294.592L104.822 300.409L99.0054 308.929L90.4853 303.112Z" fill="#9146DC"/>
<path fill-rule="evenodd" clip-rule="evenodd" d="M52.6163 299.116L58.4334 290.596L66.9534 296.413L61.1363 304.934L52.6163 299.116Z" fill="#9146DC"/>
<path fill-rule="evenodd" clip-rule="evenodd" d="M132.617 310.015L138.434 301.495L146.954 307.312L141.137 315.832L132.617 310.015Z" fill="#9146DC"/>
<path fill-rule="evenodd" clip-rule="evenodd" d="M102.118 286.071L103.675 274.642L115.104 276.2L113.547 287.628L102.118 286.071Z" fill="#F2298A"/>
<path fill-rule="evenodd" clip-rule="evenodd" d="M114.49 331.992L116.047 320.563L127.475 322.12L125.918 333.549L114.49 331.992Z" fill="#F2C618"/>
</g>
</g>
<g clip-path="url(#clip8_96_855)">
<path d="M396.212 352.142C394.365 365.354 389.601 374.249 383.258 380.332C376.854 386.473 368.356 390.211 358.292 392.201C337.87 396.24 312.803 392.802 290.374 389.667C267.954 386.533 242.556 382.92 223.681 373.376C214.369 368.668 207.059 362.707 202.471 355.019C197.934 347.414 195.724 337.559 197.566 324.376C201.011 299.728 210.514 270.47 228.95 248.95C247.114 227.749 274.192 213.709 314.187 219.299C352.098 224.598 374.012 245.518 385.871 271.098C397.881 297.002 399.606 327.863 396.212 352.142Z" fill="#FBC546" stroke="black" stroke-width="11.9288"/>
<path fill-rule="evenodd" clip-rule="evenodd" d="M261.893 341.545C252.504 331.984 246.574 319.2 245.719 305.346L355.677 320.715C351.056 333.804 341.848 344.472 330.197 351.092C324.903 343.459 269.077 335.656 261.893 341.545Z" fill="#722245"/>
<path fill-rule="evenodd" clip-rule="evenodd" d="M261.899 341.545C269.083 335.656 278.553 332.816 288.169 334.16L306.965 336.787C316.582 338.131 324.909 343.459 330.203 351.092C319.727 357.041 307.279 359.712 294.43 357.916C281.582 356.12 270.342 350.138 261.899 341.545Z" fill="#CA3B8F"/>
<path fill-rule="evenodd" clip-rule="evenodd" d="M265.022 302.323C270.229 303.051 275.506 301.678 279.702 298.512C283.896 295.345 286.664 290.647 287.392 285.44C287.907 281.754 288.447 277.894 288.962 274.208C290.478 263.362 282.915 253.341 272.069 251.826L272.058 251.824C266.851 251.096 261.574 252.469 257.379 255.635C253.184 258.801 250.416 263.5 249.689 268.707L248.119 279.939C246.603 290.785 254.166 300.806 265.011 302.322L265.022 302.323Z" fill="white"/>
<path fill-rule="evenodd" clip-rule="evenodd" d="M261.299 267.481C261.714 264.508 263.297 261.817 265.695 260.007C268.094 258.197 271.115 257.413 274.088 257.828C277.062 258.244 279.753 259.827 281.563 262.225C283.372 264.623 284.157 267.645 283.741 270.618L281.402 287.355C280.985 290.334 279.403 293.019 277.005 294.834C274.607 296.645 271.586 297.423 268.612 297.008C265.639 296.592 262.947 295.015 261.138 292.616C259.328 290.213 258.543 287.197 258.959 284.218C259.693 278.972 260.565 272.733 261.299 267.481Z" fill="black"/>
<path fill-rule="evenodd" clip-rule="evenodd" d="M337.939 312.515C332.732 311.788 328.034 309.02 324.867 304.825C321.701 300.63 320.328 295.353 321.056 290.146C321.571 286.46 322.111 282.599 322.626 278.913C324.142 268.068 334.163 260.505 345.008 262.021L345.019 262.022C350.226 262.75 354.925 265.518 358.09 269.713C361.257 273.908 362.63 279.185 361.902 284.392L360.332 295.624C358.816 306.47 348.795 314.033 337.95 312.517L337.939 312.515Z" fill="white"/>
<path fill-rule="evenodd" clip-rule="evenodd" d="M351.07 280.029C351.486 277.056 350.701 274.034 348.891 271.636C347.081 269.238 344.391 267.655 341.417 267.239C338.444 266.824 335.423 267.608 333.024 269.418C330.626 271.228 329.043 273.919 328.628 276.892L326.288 293.629C325.872 296.608 326.657 299.624 328.466 302.027C330.277 304.426 332.967 306.003 335.941 306.419C338.915 306.834 341.935 306.056 344.333 304.245C346.732 302.43 348.314 299.745 348.731 296.766C349.464 291.52 350.336 285.281 351.07 280.029Z" fill="black"/>
</g>
<g clip-path="url(#clip9_96_855)">
<mask id="mask1_96_855" style="mask-type:luminance" maskUnits="userSpaceOnUse" x="217" y="59" width="151" height="152">
<path d="M217.358 72.4488L355.118 59.9229L367.644 197.682L229.884 210.208L217.358 72.4488Z" fill="white"/>
</mask>
<g mask="url(#mask1_96_855)">
<path d="M359.47 150.646C360.257 159.296 358.554 165.64 355.434 170.435C352.284 175.277 347.451 178.905 341.366 181.657C329.019 187.243 312.619 188.776 297.937 190.111C283.26 191.446 266.625 192.918 253.246 189.664C246.646 188.058 241.129 185.363 237.082 181.168C233.079 177.019 230.218 171.1 229.434 162.47C227.967 146.335 229.656 126.381 238.156 110.008C246.529 93.8777 261.615 80.9668 287.797 78.5862C312.614 76.3297 329.604 86.3447 340.911 100.804C352.361 115.446 358.025 134.753 359.47 150.646Z" fill="#FBC546" stroke="black" stroke-width="8.02324"/>
<path d="M269.639 154.273C269.639 154.273 270.656 155.403 272.11 157.011C278.332 163.904 287.437 167.468 296.685 166.627C305.933 165.786 314.245 160.638 319.122 152.736C320.262 150.893 321.059 149.598 321.059 149.598" stroke="#593604" stroke-width="7.63319" stroke-miterlimit="1.5" stroke-linecap="round"/>
<path fill-rule="evenodd" clip-rule="evenodd" d="M270.816 146.761C274.225 146.451 277.367 144.799 279.557 142.171C281.747 139.542 282.805 136.154 282.496 132.745C282.276 130.332 282.046 127.805 281.827 125.392C281.181 118.293 274.903 113.061 267.803 113.706L267.796 113.707C264.388 114.017 261.246 115.669 259.055 118.298C256.865 120.926 255.807 124.314 256.117 127.723L256.785 135.075C257.431 142.175 263.709 147.407 270.809 146.762L270.816 146.761Z" fill="white"/>
<path fill-rule="evenodd" clip-rule="evenodd" d="M263.297 125.226C263.12 123.279 263.725 121.339 264.978 119.837C266.229 118.334 268.029 117.389 269.975 117.212C271.922 117.035 273.862 117.64 275.364 118.892C276.867 120.144 277.812 121.943 277.989 123.89L278.985 134.846C279.162 136.796 278.557 138.732 277.305 140.239C276.053 141.741 274.254 142.682 272.307 142.859C270.361 143.036 268.421 142.435 266.918 141.183C265.416 139.927 264.471 138.132 264.294 136.182C263.981 132.748 263.61 128.664 263.297 125.226Z" fill="black"/>
<path fill-rule="evenodd" clip-rule="evenodd" d="M316.888 112.18C317.185 111.827 317.543 111.528 317.949 111.306C318.947 110.76 320.176 110.707 321.217 111.168C321.584 111.334 321.927 111.559 322.226 111.832C322.529 112.111 322.785 112.444 322.977 112.808C323.192 113.214 323.333 113.66 323.385 114.118C323.44 114.591 323.401 115.069 323.273 115.528C323.134 116.034 322.887 116.497 322.553 116.901L313.228 128.092L322.726 127.228C324.753 127.044 326.548 128.54 326.733 130.567C326.917 132.595 325.421 134.39 323.393 134.574L302.58 136.467L299.662 132.847L316.888 112.18Z" fill="black"/>
</g>
</g>
</g>
<defs>
<clipPath id="clip0_96_855">
<rect width="580" height="580" fill="white"/>
</clipPath>
<clipPath id="clip1_96_855">
<rect width="169.067" height="169.067" fill="white" transform="translate(3.73816 112.543) rotate(-14.8669)"/>
</clipPath>
<clipPath id="clip2_96_855">
<rect width="138.328" height="138.328" fill="white" transform="translate(246.165 404.849) rotate(9.15787)"/>
</clipPath>
<clipPath id="clip3_96_855">
<rect width="116.785" height="116.785" fill="white" transform="translate(422.564 282.674) rotate(-13.4439)"/>
</clipPath>
<clipPath id="clip4_96_855">
<rect width="169.067" height="169.067" fill="white" transform="translate(75.3563 370.996) rotate(15.9433)"/>
</clipPath>
<clipPath id="clip5_96_855">
<rect width="169.067" height="169.067" fill="white" transform="translate(373.111 411.75) rotate(-13.1744)"/>
</clipPath>
<clipPath id="clip6_96_855">
<rect width="169.067" height="169.067" fill="white" transform="translate(410.08 78.7704) rotate(12.1374)"/>
</clipPath>
<clipPath id="clip7_96_855">
<rect width="116.718" height="116.718" fill="white" transform="translate(30.6356 280.989) rotate(-10.6766)"/>
</clipPath>
<clipPath id="clip8_96_855">
<rect width="212.489" height="212.489" fill="white" transform="translate(210.964 185.497) rotate(7.95697)"/>
</clipPath>
<clipPath id="clip9_96_855">
<rect width="138.328" height="138.328" fill="white" transform="translate(217.357 72.4487) rotate(-5.19537)"/>
</clipPath>
</defs>
</svg>
