<svg width="181" height="181" viewBox="0 0 181 181" fill="none" xmlns="http://www.w3.org/2000/svg">
<rect width="181" height="181" rx="30" fill="#ED6B44"/>
<path fill-rule="evenodd" clip-rule="evenodd" d="M91.4688 155C123.053 155 166 155 166 114.17C166 78.4008 148.656 25 91.4688 25C31.4686 25 16 78.0325 16 114.17C16 155 59.885 155 91.4688 155ZM90.4245 86.007C88.2643 86.007 86.1926 85.1491 84.6639 83.6186L60.1734 59.0986C48.8292 68.06 41.544 81.9512 41.544 97.5421C41.544 111.739 47.5942 124.531 57.2247 133.5C58.8378 134.938 61.2957 134.87 62.8203 133.339L63.1102 133.048C64.7984 131.355 66.9211 129.225 68.6091 127.451C69.3935 126.666 69.8199 125.586 69.7797 124.475C69.7395 123.363 69.2447 122.316 68.4039 121.587C61.9112 115.622 57.8361 107.055 57.8361 97.5421H90.4245H123.013C123.013 107.055 118.938 115.622 112.405 121.538C111.552 122.28 111.045 123.343 111.009 124.475C110.969 125.602 111.399 126.698 112.196 127.499C112.374 127.677 112.556 127.859 112.741 128.045C114.463 129.765 116.469 131.77 118.053 133.315C119.565 134.834 121.999 134.902 123.6 133.472C133.255 124.531 139.305 111.739 139.305 97.5421C139.305 81.9512 132.024 68.06 120.676 59.0986L96.1851 83.6186C94.6565 85.1491 92.5847 86.007 90.4245 86.007Z" fill="white"/>
</svg>
