<svg width="306" height="61" viewBox="0 0 306 61" fill="none" xmlns="http://www.w3.org/2000/svg">
<g id="Mutant Remix Wordmark Logo NEW">
<path id="Mutant Remix" d="M102.928 20.088C103.024 19.896 103.192 19.8 103.432 19.8H108.508C108.628 19.8 108.724 19.848 108.796 19.944C108.892 20.016 108.94 20.112 108.94 20.232V44.568C108.94 44.688 108.892 44.796 108.796 44.892C108.724 44.964 108.628 45 108.508 45H103.396C103.276 45 103.168 44.964 103.072 44.892C103 44.796 102.964 44.688 102.964 44.568V30.096C102.964 30 102.94 29.952 102.892 29.952C102.844 29.952 102.796 29.988 102.748 30.06L99.652 35.028C99.556 35.22 99.388 35.316 99.148 35.316H96.592C96.352 35.316 96.184 35.22 96.088 35.028L92.956 30.024C92.908 29.952 92.86 29.916 92.812 29.916C92.764 29.916 92.74 29.964 92.74 30.06V44.568C92.74 44.688 92.692 44.796 92.596 44.892C92.524 44.964 92.428 45 92.308 45H87.196C87.076 45 86.968 44.964 86.872 44.892C86.8 44.796 86.764 44.688 86.764 44.568V20.232C86.764 20.112 86.8 20.016 86.872 19.944C86.968 19.848 87.076 19.8 87.196 19.8H92.272C92.488 19.8 92.656 19.896 92.776 20.088L97.78 27.936C97.852 28.08 97.924 28.08 97.996 27.936L102.928 20.088ZM122.975 26.82C122.975 26.7 123.011 26.604 123.083 26.532C123.179 26.436 123.287 26.388 123.407 26.388H128.519C128.639 26.388 128.735 26.436 128.807 26.532C128.903 26.604 128.951 26.7 128.951 26.82V44.568C128.951 44.688 128.903 44.796 128.807 44.892C128.735 44.964 128.639 45 128.519 45H123.407C123.287 45 123.179 44.964 123.083 44.892C123.011 44.796 122.975 44.688 122.975 44.568V43.308C122.975 43.236 122.951 43.188 122.903 43.164C122.855 43.14 122.807 43.164 122.759 43.236C121.799 44.604 120.287 45.288 118.223 45.288C116.399 45.288 114.923 44.712 113.795 43.56C112.667 42.408 112.103 40.8 112.103 38.736V26.82C112.103 26.7 112.139 26.604 112.211 26.532C112.307 26.436 112.415 26.388 112.535 26.388H117.647C117.767 26.388 117.863 26.436 117.935 26.532C118.031 26.604 118.079 26.7 118.079 26.82V37.368C118.079 38.208 118.295 38.88 118.727 39.384C119.159 39.888 119.747 40.14 120.491 40.14C121.163 40.14 121.715 39.936 122.147 39.528C122.603 39.12 122.879 38.58 122.975 37.908V26.82ZM143.453 30.744C143.453 30.864 143.405 30.972 143.309 31.068C143.237 31.14 143.141 31.176 143.021 31.176H139.745C139.625 31.176 139.565 31.236 139.565 31.356V37.908C139.565 39.276 140.117 39.96 141.221 39.96H142.553C142.673 39.96 142.769 40.008 142.841 40.104C142.937 40.176 142.985 40.272 142.985 40.392V44.568C142.985 44.832 142.841 44.988 142.553 45.036C141.401 45.084 140.561 45.108 140.033 45.108C137.945 45.108 136.397 44.784 135.389 44.136C134.381 43.464 133.865 42.204 133.841 40.356V31.356C133.841 31.236 133.781 31.176 133.661 31.176H131.609C131.489 31.176 131.381 31.14 131.285 31.068C131.213 30.972 131.177 30.864 131.177 30.744V26.82C131.177 26.7 131.213 26.604 131.285 26.532C131.381 26.436 131.489 26.388 131.609 26.388H133.661C133.781 26.388 133.841 26.328 133.841 26.208V21.852C133.841 21.732 133.877 21.636 133.949 21.564C134.045 21.468 134.153 21.42 134.273 21.42H139.133C139.253 21.42 139.349 21.468 139.421 21.564C139.517 21.636 139.565 21.732 139.565 21.852V26.208C139.565 26.328 139.625 26.388 139.745 26.388H143.021C143.141 26.388 143.237 26.436 143.309 26.532C143.405 26.604 143.453 26.7 143.453 26.82V30.744ZM153.632 26.1C155.24 26.1 156.692 26.376 157.988 26.928C159.284 27.456 160.304 28.2 161.048 29.16C161.792 30.096 162.164 31.14 162.164 32.292V44.568C162.164 44.688 162.116 44.796 162.02 44.892C161.948 44.964 161.852 45 161.732 45H156.62C156.5 45 156.392 44.964 156.296 44.892C156.224 44.796 156.188 44.688 156.188 44.568V43.308C156.188 43.212 156.164 43.164 156.116 43.164C156.068 43.14 156.02 43.176 155.972 43.272C155.06 44.616 153.5 45.288 151.292 45.288C149.372 45.288 147.836 44.844 146.684 43.956C145.556 43.044 144.992 41.712 144.992 39.96C144.992 38.112 145.628 36.684 146.9 35.676C148.196 34.668 150.068 34.164 152.516 34.164H156.008C156.128 34.164 156.188 34.104 156.188 33.984V33.3C156.188 32.652 155.972 32.148 155.54 31.788C155.108 31.404 154.508 31.212 153.74 31.212C153.164 31.212 152.66 31.32 152.228 31.536C151.82 31.752 151.556 32.028 151.436 32.364C151.316 32.628 151.148 32.748 150.932 32.724L145.748 32.04C145.46 31.992 145.316 31.884 145.316 31.716C145.412 30.66 145.82 29.712 146.54 28.872C147.284 28.008 148.268 27.336 149.492 26.856C150.74 26.352 152.12 26.1 153.632 26.1ZM153.056 41.004C153.968 41.004 154.712 40.776 155.288 40.32C155.888 39.84 156.188 39.216 156.188 38.448V37.584C156.188 37.464 156.128 37.404 156.008 37.404H153.848C152.936 37.404 152.228 37.56 151.724 37.872C151.244 38.184 151.004 38.652 151.004 39.276C151.004 39.804 151.184 40.224 151.544 40.536C151.904 40.848 152.408 41.004 153.056 41.004ZM175.597 26.1C177.469 26.1 179.005 26.7 180.205 27.9C181.405 29.076 182.005 30.684 182.005 32.724V44.568C182.005 44.688 181.957 44.796 181.861 44.892C181.789 44.964 181.693 45 181.573 45H176.461C176.341 45 176.233 44.964 176.137 44.892C176.065 44.796 176.029 44.688 176.029 44.568V34.02C176.029 33.204 175.801 32.532 175.345 32.004C174.889 31.476 174.301 31.212 173.581 31.212C172.837 31.212 172.237 31.476 171.781 32.004C171.325 32.508 171.097 33.18 171.097 34.02V44.568C171.097 44.688 171.049 44.796 170.953 44.892C170.881 44.964 170.785 45 170.665 45H165.553C165.433 45 165.325 44.964 165.229 44.892C165.157 44.796 165.121 44.688 165.121 44.568V26.82C165.121 26.7 165.157 26.604 165.229 26.532C165.325 26.436 165.433 26.388 165.553 26.388H170.665C170.785 26.388 170.881 26.436 170.953 26.532C171.049 26.604 171.097 26.7 171.097 26.82V28.152C171.097 28.248 171.109 28.308 171.133 28.332C171.181 28.332 171.229 28.296 171.277 28.224C172.189 26.808 173.629 26.1 175.597 26.1ZM196.398 30.744C196.398 30.864 196.35 30.972 196.254 31.068C196.182 31.14 196.086 31.176 195.966 31.176H192.69C192.57 31.176 192.51 31.236 192.51 31.356V37.908C192.51 39.276 193.062 39.96 194.166 39.96H195.498C195.618 39.96 195.714 40.008 195.786 40.104C195.882 40.176 195.93 40.272 195.93 40.392V44.568C195.93 44.832 195.786 44.988 195.498 45.036C194.346 45.084 193.506 45.108 192.978 45.108C190.89 45.108 189.342 44.784 188.334 44.136C187.326 43.464 186.81 42.204 186.786 40.356V31.356C186.786 31.236 186.726 31.176 186.606 31.176H184.554C184.434 31.176 184.326 31.14 184.23 31.068C184.158 30.972 184.122 30.864 184.122 30.744V26.82C184.122 26.7 184.158 26.604 184.23 26.532C184.326 26.436 184.434 26.388 184.554 26.388H186.606C186.726 26.388 186.786 26.328 186.786 26.208V21.852C186.786 21.732 186.822 21.636 186.894 21.564C186.99 21.468 187.098 21.42 187.218 21.42H192.078C192.198 21.42 192.294 21.468 192.366 21.564C192.462 21.636 192.51 21.732 192.51 21.852V26.208C192.51 26.328 192.57 26.388 192.69 26.388H195.966C196.086 26.388 196.182 26.436 196.254 26.532C196.35 26.604 196.398 26.7 196.398 26.82V30.744ZM219.76 45C219.52 45 219.352 44.892 219.256 44.676L215.008 35.1C214.96 35.004 214.888 34.956 214.792 34.956H212.416C212.296 34.956 212.236 35.016 212.236 35.136V44.568C212.236 44.688 212.188 44.796 212.092 44.892C212.02 44.964 211.924 45 211.804 45H206.692C206.572 45 206.464 44.964 206.368 44.892C206.296 44.796 206.26 44.688 206.26 44.568V20.232C206.26 20.112 206.296 20.016 206.368 19.944C206.464 19.848 206.572 19.8 206.692 19.8H217.384C218.968 19.8 220.36 20.124 221.56 20.772C222.76 21.42 223.684 22.344 224.332 23.544C225.004 24.72 225.34 26.076 225.34 27.612C225.34 29.22 224.944 30.612 224.152 31.788C223.36 32.964 222.256 33.816 220.84 34.344C220.72 34.392 220.684 34.476 220.732 34.596L225.484 44.496C225.532 44.592 225.556 44.664 225.556 44.712C225.556 44.904 225.424 45 225.16 45H219.76ZM212.416 24.912C212.296 24.912 212.236 24.972 212.236 25.092V30.204C212.236 30.324 212.296 30.384 212.416 30.384H216.412C217.3 30.384 218.02 30.144 218.572 29.664C219.124 29.16 219.4 28.5 219.4 27.684C219.4 26.844 219.124 26.172 218.572 25.668C218.02 25.164 217.3 24.912 216.412 24.912H212.416ZM245.049 34.056C245.169 34.776 245.205 35.724 245.157 36.9C245.133 37.188 244.977 37.332 244.689 37.332H233.709C233.661 37.332 233.613 37.356 233.565 37.404C233.517 37.428 233.505 37.464 233.529 37.512C233.577 37.776 233.697 38.124 233.889 38.556C234.177 39.06 234.609 39.468 235.185 39.78C235.761 40.092 236.469 40.248 237.309 40.248C238.821 40.248 240.009 39.756 240.873 38.772C240.969 38.652 241.077 38.592 241.197 38.592C241.317 38.592 241.413 38.64 241.485 38.736L244.257 41.904C244.353 41.976 244.401 42.072 244.401 42.192C244.401 42.288 244.353 42.384 244.257 42.48C243.417 43.392 242.373 44.088 241.125 44.568C239.901 45.048 238.557 45.288 237.093 45.288C234.909 45.288 233.049 44.82 231.513 43.884C230.001 42.924 228.909 41.592 228.237 39.888C227.733 38.688 227.481 37.188 227.481 35.388C227.481 34.14 227.673 32.94 228.057 31.788C228.681 30.012 229.701 28.62 231.117 27.612C232.557 26.58 234.261 26.064 236.229 26.064C237.813 26.064 239.229 26.412 240.477 27.108C241.725 27.78 242.733 28.728 243.501 29.952C244.293 31.152 244.809 32.52 245.049 34.056ZM236.229 31.212C234.981 31.212 234.153 31.8 233.745 32.976C233.649 33.24 233.589 33.492 233.565 33.732C233.517 33.852 233.565 33.912 233.709 33.912H238.821C238.917 33.912 238.965 33.864 238.965 33.768C238.965 33.576 238.917 33.336 238.821 33.048C238.653 32.448 238.341 31.992 237.885 31.68C237.453 31.368 236.901 31.212 236.229 31.212ZM268.982 26.1C270.854 26.1 272.318 26.676 273.374 27.828C274.43 28.98 274.958 30.6 274.958 32.688V44.568C274.958 44.688 274.91 44.796 274.814 44.892C274.742 44.964 274.646 45 274.526 45H269.45C269.33 45 269.222 44.964 269.126 44.892C269.054 44.796 269.018 44.688 269.018 44.568V33.984C269.018 33.168 268.802 32.508 268.37 32.004C267.962 31.476 267.41 31.212 266.714 31.212C266.018 31.212 265.442 31.464 264.986 31.968C264.554 32.472 264.338 33.144 264.338 33.984V44.568C264.338 44.688 264.29 44.796 264.194 44.892C264.122 44.964 264.026 45 263.906 45H258.794C258.674 45 258.566 44.964 258.47 44.892C258.398 44.796 258.362 44.688 258.362 44.568V33.984C258.362 33.168 258.134 32.508 257.678 32.004C257.246 31.476 256.682 31.212 255.986 31.212C255.338 31.212 254.798 31.416 254.366 31.824C253.934 32.232 253.67 32.772 253.574 33.444V44.568C253.574 44.688 253.526 44.796 253.43 44.892C253.358 44.964 253.262 45 253.142 45H248.03C247.91 45 247.802 44.964 247.706 44.892C247.634 44.796 247.598 44.688 247.598 44.568V26.82C247.598 26.7 247.634 26.604 247.706 26.532C247.802 26.436 247.91 26.388 248.03 26.388H253.142C253.262 26.388 253.358 26.436 253.43 26.532C253.526 26.604 253.574 26.7 253.574 26.82V28.44C253.574 28.536 253.598 28.596 253.646 28.62C253.694 28.62 253.742 28.572 253.79 28.476C254.726 26.892 256.262 26.1 258.398 26.1C259.598 26.1 260.654 26.364 261.566 26.892C262.478 27.42 263.174 28.188 263.654 29.196C263.726 29.34 263.798 29.328 263.87 29.16C264.374 28.128 265.058 27.36 265.922 26.856C266.81 26.352 267.83 26.1 268.982 26.1ZM280.928 24.732C280.016 24.732 279.26 24.444 278.66 23.868C278.084 23.268 277.796 22.512 277.796 21.6C277.796 20.664 278.084 19.908 278.66 19.332C279.26 18.756 280.016 18.468 280.928 18.468C281.84 18.468 282.584 18.756 283.16 19.332C283.76 19.908 284.06 20.664 284.06 21.6C284.06 22.488 283.76 23.232 283.16 23.832C282.584 24.432 281.84 24.732 280.928 24.732ZM278.336 45C278.216 45 278.108 44.964 278.012 44.892C277.94 44.796 277.904 44.688 277.904 44.568V26.82C277.904 26.7 277.94 26.604 278.012 26.532C278.108 26.436 278.216 26.388 278.336 26.388H283.448C283.568 26.388 283.664 26.436 283.736 26.532C283.832 26.604 283.88 26.7 283.88 26.82V44.568C283.88 44.688 283.832 44.796 283.736 44.892C283.664 44.964 283.568 45 283.448 45H278.336ZM286.469 45C286.301 45 286.193 44.952 286.145 44.856C286.097 44.736 286.121 44.604 286.217 44.46L291.977 35.784C292.025 35.712 292.025 35.64 291.977 35.568L286.217 26.928C286.169 26.856 286.145 26.772 286.145 26.676C286.145 26.484 286.253 26.388 286.469 26.388H291.977C292.193 26.388 292.361 26.484 292.481 26.676L295.217 30.96C295.265 31.032 295.313 31.068 295.361 31.068C295.409 31.068 295.445 31.032 295.469 30.96L298.205 26.676C298.325 26.484 298.493 26.388 298.709 26.388H304.577C304.745 26.388 304.853 26.448 304.901 26.568C304.949 26.664 304.925 26.784 304.829 26.928L299.069 35.568C299.045 35.64 299.045 35.712 299.069 35.784L304.829 44.46C304.877 44.532 304.901 44.616 304.901 44.712C304.901 44.904 304.793 45 304.577 45H299.069C298.853 45 298.685 44.904 298.565 44.712L295.829 40.428C295.805 40.356 295.769 40.32 295.721 40.32C295.673 40.32 295.625 40.356 295.577 40.428L292.841 44.712C292.721 44.904 292.553 45 292.337 45H286.469Z" fill="white"/>
<path id="Subtract" fill-rule="evenodd" clip-rule="evenodd" d="M35.4549 61C50.2928 61 70.4693 61 70.4693 41.8412C70.4693 25.0573 62.3212 0 35.4549 0C7.26709 0 0 24.8845 0 41.8412C0 61 20.617 61 35.4549 61ZM34.9639 28.6262C33.949 28.6262 32.9757 28.2237 32.2576 27.5056L20.752 16C15.4226 20.205 12 26.7231 12 34.0388C12 40.7007 14.8424 46.7029 19.3667 50.9116C20.1246 51.5863 21.2793 51.5542 21.9955 50.8361L22.1316 50.6997C22.9247 49.9049 23.922 48.9054 24.7151 48.0731C25.0836 47.7045 25.2839 47.198 25.265 46.6764C25.2461 46.1548 25.0137 45.6635 24.6187 45.3214C21.5684 42.5225 19.654 38.5027 19.654 34.0388H34.9639H50.2737C50.2737 38.5027 48.3593 42.5225 45.2901 45.2987C44.8895 45.6465 44.6513 46.1454 44.6343 46.6764C44.6154 47.2056 44.8176 47.7197 45.1918 48.0957C45.2756 48.1793 45.3614 48.2649 45.4487 48.3521C46.2575 49.1593 47.1998 50.0998 47.9435 50.8247C48.6541 51.5372 49.7975 51.5693 50.5496 50.8984C55.0853 46.7029 57.9277 40.7007 57.9277 34.0388C57.9277 26.7231 54.507 20.205 49.1757 16L37.6701 27.5056C36.952 28.2237 35.9787 28.6262 34.9639 28.6262Z" fill="white"/>
</g>
</svg>
