<svg width="28" height="28" viewBox="0 0 28 28" fill="none" xmlns="http://www.w3.org/2000/svg">
<g clip-path="url(#clip0_14_68)">
<path fill-rule="evenodd" clip-rule="evenodd" d="M28 7C28 3.13425 24.8657 0 21 0H7C3.13425 0 0 3.13425 0 7V21C0 24.8657 3.13425 28 7 28H21C24.8657 28 28 24.8657 28 21V7Z" fill="black"/>
<path fill-rule="evenodd" clip-rule="evenodd" d="M26.25 7C26.25 5.60788 25.697 4.27262 24.7126 3.28737C23.7274 2.303 22.3921 1.75 21 1.75H7C5.60788 1.75 4.27262 2.303 3.28737 3.28737C2.303 4.27262 1.75 5.60788 1.75 7V21C1.75 22.3921 2.303 23.7274 3.28737 24.7126C4.27262 25.697 5.60788 26.25 7 26.25H21C22.3921 26.25 23.7274 25.697 24.7126 24.7126C25.697 23.7274 26.25 22.3921 26.25 21V7Z" fill="#BF3B1E"/>
<path fill-rule="evenodd" clip-rule="evenodd" d="M14.0068 11.5323L18.8945 6.64453C19.7197 7.46966 20.5439 8.29391 21.369 9.11903L16.4813 14.0068L21.369 18.8945L18.8945 21.369L14.0068 16.4813L9.11903 21.369L6.64453 18.8945L11.5323 14.0068L6.64453 9.11903L9.11903 6.64453L14.0068 11.5323Z" fill="white"/>
</g>
<defs>
<clipPath id="clip0_14_68">
<rect width="28" height="28" fill="white"/>
</clipPath>
</defs>
</svg>
