<svg width="298" height="272" viewBox="0 0 298 272" fill="none" xmlns="http://www.w3.org/2000/svg">
<g clip-path="url(#clip0_11_27)">
<path d="M98.6952 62.1933C100.13 67.6 99.7359 71.8125 98.2739 75.195C96.7978 78.6099 94.1216 81.4364 90.5557 83.8426C83.3202 88.7251 73.0734 91.4734 63.8955 93.9097C54.721 96.3452 44.318 99.0796 35.4712 98.4613C31.1067 98.1563 27.312 97.0415 24.2885 94.8162C21.2979 92.6151 18.8409 89.166 17.4089 83.7717C14.7314 73.6855 13.6451 60.8329 17.2701 49.5173C20.8413 38.3695 29.0228 28.5394 45.3889 24.1948C60.9023 20.0766 72.7737 24.5972 81.5176 32.5544C90.3719 40.6121 96.0579 52.2584 98.6952 62.1933Z" fill="#FBC546" stroke="black" stroke-width="4.99358"/>
<path fill-rule="evenodd" clip-rule="evenodd" d="M32.3544 65.7249C32.8558 66.016 33.453 66.0956 34.0144 65.9465C34.5759 65.7975 35.055 65.4322 35.346 64.9308C35.3522 64.9201 35.3575 64.9142 35.3575 64.9142C36.3037 63.284 37.8571 62.096 39.6791 61.6123C41.5012 61.1286 43.4393 61.3898 45.0695 62.336C45.0695 62.336 45.0769 62.3385 45.0877 62.3448C45.589 62.6358 46.1862 62.7154 46.7477 62.5663C47.3091 62.4173 47.7882 62.052 48.0792 61.5506C48.0813 61.5501 48.0808 61.5479 48.0808 61.5479C48.6898 60.5018 48.3333 59.1585 47.2855 58.5521C47.2769 58.5454 47.2715 58.5422 47.2715 58.5422C44.636 57.0124 41.4993 56.5932 38.5543 57.375C35.6093 58.1568 33.0935 60.0765 31.5637 62.7121C31.5637 62.7121 31.5606 62.7174 31.5565 62.7276C30.9474 63.7738 31.304 65.117 32.3517 65.7234C32.3517 65.7234 32.3523 65.7255 32.3544 65.7249Z" fill="black"/>
<path fill-rule="evenodd" clip-rule="evenodd" d="M75.6221 54.2391C75.3311 54.7405 74.852 55.1058 74.2905 55.2548C73.7291 55.4039 73.1319 55.3243 72.6305 55.0332C72.6198 55.027 72.6123 55.0245 72.6123 55.0245C70.9822 54.0783 69.0441 53.8171 67.222 54.3008C65.3999 54.7845 63.8465 55.9725 62.9003 57.6026C62.9003 57.6026 62.8951 57.6086 62.8888 57.6193C62.5978 58.1206 62.1187 58.486 61.5573 58.635C60.9958 58.784 60.3986 58.7044 59.8973 58.4134C59.8952 58.414 59.8946 58.4119 59.8946 58.4119C58.8468 57.8055 58.4903 56.4623 59.0993 55.4161C59.1034 55.4059 59.1065 55.4005 59.1065 55.4005C60.6363 52.765 63.1522 50.8452 66.0971 50.0635C69.0421 49.2817 72.1789 49.7009 74.8144 51.2307C74.8144 51.2307 74.8198 51.2338 74.8284 51.2406C75.8761 51.847 76.2327 53.1902 75.6236 54.2364C75.6236 54.2364 75.6242 54.2385 75.6221 54.2391Z" fill="black"/>
<path fill-rule="evenodd" clip-rule="evenodd" d="M46.0219 83.4388C40.3792 81.6617 35.4431 78.0528 32.9509 73.0218L78.71 60.8745C79.0412 66.4792 76.5449 72.0611 72.5265 76.4028C69.4187 74.2387 47.6472 80.0181 46.0219 83.4388Z" fill="#722245"/>
<path fill-rule="evenodd" clip-rule="evenodd" d="M46.0197 83.4393C47.645 80.0186 50.7114 77.3789 54.5292 76.3654C56.8386 75.7524 59.3174 75.0943 61.6268 74.4813C65.4446 73.4678 69.4165 74.2391 72.5243 76.4033C69.2393 79.9538 64.9358 82.6748 60.3277 83.898C55.7196 85.1213 50.6331 84.8931 46.0197 83.4393Z" fill="#CA3B8F"/>
</g>
<g clip-path="url(#clip1_11_27)">
<path d="M187.833 237.909C187.113 242.377 185.434 245.361 183.239 247.379C181.023 249.416 178.114 250.624 174.686 251.227C167.73 252.452 159.252 251.108 151.667 249.885C144.084 248.662 135.495 247.256 129.16 243.885C126.035 242.222 123.598 240.148 122.096 237.507C120.611 234.895 119.932 231.537 120.65 227.078C121.608 221.14 123.269 216.625 126.576 211.734L186.792 221.441C188.509 227.191 188.781 232.03 187.833 237.909Z" fill="#FBC546" stroke="black" stroke-width="4.04053"/>
<path d="M142.73 230.832C145.53 231.284 148.165 229.38 148.617 226.58C149.068 223.78 147.164 221.144 144.364 220.693C141.564 220.241 138.928 222.145 138.477 224.945C138.026 227.745 139.93 230.381 142.73 230.832Z" fill="white"/>
<path d="M165.037 234.428C167.837 234.88 170.473 232.976 170.924 230.176C171.375 227.376 169.471 224.74 166.671 224.289C163.871 223.837 161.236 225.741 160.784 228.541C160.333 231.341 162.237 233.977 165.037 234.428Z" fill="white"/>
<path fill-rule="evenodd" clip-rule="evenodd" d="M146.584 226.284C146.714 225.477 146.518 224.651 146.04 223.989C145.56 223.327 144.839 222.882 144.032 222.752C143.225 222.622 142.401 222.818 141.737 223.295C141.075 223.773 140.63 224.497 140.5 225.304L140.494 225.34C140.364 226.147 140.56 226.972 141.038 227.633C141.517 228.297 142.238 228.742 143.046 228.872C143.853 229.003 144.677 228.807 145.341 228.327C146.003 227.849 146.448 227.128 146.578 226.321L146.584 226.284Z" fill="black"/>
<path fill-rule="evenodd" clip-rule="evenodd" d="M168.892 229.876C169.162 228.197 168.021 226.619 166.344 226.349L166.336 226.348C164.658 226.077 163.079 227.217 162.808 228.896L162.801 228.94C162.53 230.617 163.672 232.197 165.349 232.468L165.357 232.469C167.034 232.74 168.614 231.598 168.885 229.921L168.892 229.876Z" fill="black"/>
<path fill-rule="evenodd" clip-rule="evenodd" d="M163.419 241.56C163.632 242.239 163.479 242.98 163.014 243.519C162.546 244.057 161.837 244.315 161.133 244.202C156.479 243.452 148.014 242.087 143.36 241.337C142.657 241.223 142.064 240.756 141.79 240.097C141.517 239.44 141.605 238.688 142.02 238.11C142.774 237.06 143.664 235.824 144.526 234.625C146.732 231.558 150.479 230.001 154.208 230.602C157.938 231.203 161.005 233.859 162.136 237.464C162.577 238.873 163.033 240.326 163.419 241.56Z" fill="#5B2B02"/>
<path fill-rule="evenodd" clip-rule="evenodd" d="M145.577 241.694L143.36 241.337C142.656 241.224 142.064 240.756 141.789 240.098C141.517 239.44 141.605 238.688 142.02 238.11C142.774 237.06 143.664 235.825 144.525 234.625C146.732 231.559 150.479 230.001 154.208 230.602C157.937 231.203 161.005 233.859 162.136 237.464C162.577 238.873 163.033 240.326 163.419 241.56C163.632 242.239 163.479 242.98 163.014 243.519C162.546 244.058 161.837 244.316 161.133 244.202L158.916 243.845C155.864 242.72 153.652 242.418 152.12 242.171C150.519 241.911 148.073 241.604 145.577 241.694Z" fill="#722245"/>
<path fill-rule="evenodd" clip-rule="evenodd" d="M145.579 241.695C147.72 240.712 150.146 240.35 152.575 240.742C155.005 241.133 157.194 242.24 158.918 243.845L145.579 241.695Z" fill="#CA3B8F"/>
<path d="M156.14 187.768L155.137 187.047C152.398 185.077 148.703 185.08 145.967 187.056L145.231 187.588L145.02 187.74L144.964 187.781L144.949 187.791L144.945 187.794L144.944 187.795L144.944 187.795L144.944 187.795L144.944 187.795L145.667 188.796L144.944 187.795L143.325 188.965L145.095 189.89L151.064 193.01L152.013 193.506L152.638 192.636L155.419 188.77L156.14 187.768Z" fill="#FBC546" stroke="black" stroke-width="2.46921"/>
<path fill-rule="evenodd" clip-rule="evenodd" d="M178.168 195.841C177.743 198.477 175.654 197.834 173.019 197.409C170.383 196.984 168.198 196.938 168.623 194.302C169.048 191.666 171.529 189.874 174.165 190.299C176.8 190.724 178.593 193.205 178.168 195.841ZM175.733 195.448C175.525 196.74 174.31 197.617 173.019 197.409C171.727 197.201 170.849 195.986 171.058 194.695C171.266 193.404 172.481 192.526 173.772 192.734C175.063 192.942 175.941 194.157 175.733 195.448Z" fill="black"/>
<path fill-rule="evenodd" clip-rule="evenodd" d="M126.685 212.165L127.078 209.727C127.447 207.438 128.711 205.392 130.587 204.034L130.589 204.033C132.467 202.676 134.114 202.236 136.401 202.605L139.065 204.397L137.752 213.95L126.685 212.165ZM132.033 206.032C131.377 206.507 130.826 207.098 130.402 207.769C129.954 208.478 129.649 209.276 129.513 210.119L129.512 210.123L135.709 211.122L136.709 204.925L136.704 204.925C135.861 204.789 135.007 204.828 134.194 205.03C133.423 205.221 132.688 205.559 132.033 206.032Z" fill="black"/>
<path fill-rule="evenodd" clip-rule="evenodd" d="M161.097 190.69L156.359 198.351L145.201 191.498L147.557 198.618L135.341 198.333L144.791 204.912L136.902 210.38L147.146 212.031L141.23 216.133L171.963 221.087L167.635 215.334L177.88 216.986L172.109 209.316L183.148 206.04L171.461 202.471L175.935 196.452L163.188 199.452L161.097 190.69Z" fill="#F30800"/>
<path fill-rule="evenodd" clip-rule="evenodd" d="M161.882 185.821L165.773 195.262L184.427 190.871L177.21 200.581L194.89 206.031L177.913 211.23L185.868 221.805L175.624 220.154L175.385 221.639L137.808 215.581L138.048 214.096L127.803 212.445L138.679 204.905L123.843 194.578L142.693 195.017L138.893 183.531L155.222 193.561L161.882 185.821ZM156.359 198.351L145.201 191.498L147.557 198.618L135.34 198.333L144.791 204.912L136.902 210.38L147.146 212.031L141.23 216.133L171.963 221.087L167.635 215.334L177.88 216.986L172.109 209.316L183.148 206.04L171.461 202.471L175.934 196.452L163.188 199.452L161.097 190.69L156.359 198.351Z" fill="black"/>
<path fill-rule="evenodd" clip-rule="evenodd" d="M160.049 197.192L155.81 201.58L149.457 197.175L152.103 202.672L143.497 201.285L149.85 205.69L143.89 209.8L150.775 210.91L146.536 215.298L153.686 214.76L156.596 218.61L160.57 215.87L165.467 218.35L164.543 213.13L171.427 214.239L167.061 208.464L174.476 206.279L165.871 204.892L170.11 200.504L162.695 202.69L160.049 197.192Z" fill="#FFA32B"/>
<path d="M173.019 197.409C174.31 197.617 175.525 196.74 175.733 195.448C175.941 194.157 175.063 192.942 173.772 192.734C172.481 192.526 171.266 193.403 171.058 194.695C170.85 195.986 171.727 197.201 173.019 197.409Z" fill="#FBC546"/>
<path fill-rule="evenodd" clip-rule="evenodd" d="M129.512 210.123L129.513 210.119C129.778 208.477 130.684 207.008 132.033 206.032C133.381 205.058 135.062 204.66 136.705 204.925L136.709 204.925L135.71 211.122L129.512 210.123Z" fill="#FBC546"/>
<path fill-rule="evenodd" clip-rule="evenodd" d="M186.17 213.99L183.664 217.475L178.284 214.663C178.284 214.663 178.667 214.386 179.206 213.997C181.284 212.496 184.09 212.494 186.17 213.99Z" fill="#FBC546"/>
<path fill-rule="evenodd" clip-rule="evenodd" d="M187.61 211.988L189.612 213.428L184.418 220.651L176.42 213.548L176.84 212.664L178.284 214.663L183.664 217.475L186.17 213.99L186.17 213.99C185.463 213.482 184.673 213.146 183.856 212.984C182.836 212.781 181.773 212.848 180.78 213.185C180.228 213.372 179.697 213.643 179.206 213.997L178.284 214.663L176.84 212.664L177.762 211.998C180.7 209.876 184.668 209.872 187.61 211.988Z" fill="black"/>
<path d="M149.771 206.014L149.049 206.535L149.316 207.384L150.728 211.889L151.097 213.066L152.275 212.697L156.779 211.285L158.413 210.773L157.411 209.384L153.914 204.544L153.191 203.543L152.191 204.266L149.771 206.014Z" fill="#FBC546" stroke="black" stroke-width="2.46867"/>
</g>
<g clip-path="url(#clip2_11_27)">
<path d="M284.757 141.531C285.644 145.244 285.304 148.111 284.249 150.394C283.184 152.699 281.31 154.582 278.836 156.164C273.817 159.372 266.779 161.074 260.476 162.58C254.175 164.086 247.031 165.776 241.005 165.204C238.033 164.922 235.463 164.097 233.438 162.527C231.434 160.975 229.817 158.58 228.931 154.875C227.275 147.948 226.752 139.161 229.417 131.502C232.042 123.957 237.791 117.388 249.031 114.702C259.685 112.155 267.708 115.44 273.539 121.017C279.443 126.665 283.126 134.707 284.757 141.531Z" fill="#FBC546" stroke="black" stroke-width="3.40806"/>
<path fill-rule="evenodd" clip-rule="evenodd" d="M248.413 155.019C245.809 153.709 243.522 151.581 242.114 148.548L269.853 141.917C269.968 145.259 268.891 148.191 267.161 150.537C265.001 149.191 249.731 152.841 248.413 155.019Z" fill="#722245"/>
<path fill-rule="evenodd" clip-rule="evenodd" d="M248.419 155.018C249.736 152.84 251.889 151.21 254.479 150.591C256.197 150.181 258.041 149.74 259.76 149.329C262.349 148.71 265.007 149.189 267.167 150.536C264.995 153.483 261.792 155.508 258.627 156.265C255.461 157.022 251.688 156.664 248.419 155.018Z" fill="#CA3B8F"/>
<path fill-rule="evenodd" clip-rule="evenodd" d="M261.846 123.158C261.859 122.997 261.899 122.839 261.966 122.693C262.05 122.508 262.174 122.343 262.328 122.212C262.452 122.105 262.595 122.021 262.75 121.964C262.88 121.915 263.018 121.887 263.158 121.878C263.308 121.871 263.458 121.887 263.603 121.927C263.763 121.97 263.915 122.044 264.05 122.14C264.199 122.249 264.324 122.386 264.421 122.543L266.56 126.041L274.284 124.194L275.006 127.213C275.135 127.657 275.037 128.145 274.727 128.509C272.899 130.646 270.845 133.046 270.845 133.046L272.107 135.113L273.375 135.404L274.112 138.489C274.235 138.929 274.138 139.413 273.829 139.773C273.437 140.232 272.794 140.385 272.237 140.154C269.64 139.075 266.722 137.863 266.722 137.863C266.722 137.863 264.668 140.263 262.839 142.4C262.447 142.859 261.804 143.012 261.247 142.781C260.809 142.599 260.503 142.212 260.414 141.763L259.677 138.679L260.667 137.942L260.867 135.432C260.867 135.432 257.949 134.219 255.352 133.141C254.932 132.966 254.634 132.603 254.532 132.178L253.794 129.092L261.52 127.246L261.846 123.158ZM238.202 128.81C238.215 128.649 238.256 128.491 238.322 128.345C238.407 128.16 238.53 127.995 238.684 127.864C238.808 127.757 238.952 127.673 239.106 127.616C239.236 127.567 239.374 127.539 239.514 127.53C239.664 127.523 239.814 127.538 239.959 127.579C240.119 127.622 240.272 127.696 240.406 127.792C240.556 127.901 240.68 128.038 240.778 128.195L242.917 131.692L250.64 129.846L251.362 132.865C251.491 133.309 251.393 133.797 251.084 134.161C249.255 136.298 247.201 138.698 247.201 138.698L248.463 140.764L249.731 141.056L250.468 144.141C250.592 144.581 250.494 145.065 250.185 145.425C249.793 145.884 249.15 146.037 248.593 145.806C245.996 144.727 243.078 143.515 243.078 143.515C243.078 143.515 241.024 145.915 239.196 148.052C238.804 148.511 238.161 148.664 237.604 148.433C237.165 148.251 236.86 147.864 236.771 147.415L236.033 144.331L237.024 143.594L237.223 141.083C237.223 141.083 234.306 139.871 231.708 138.792C231.288 138.618 230.99 138.254 230.889 137.83L230.151 134.744L237.876 132.897L238.202 128.81Z" fill="#D69200"/>
<path fill-rule="evenodd" clip-rule="evenodd" d="M261.092 120.007C261.14 119.405 261.57 118.903 262.156 118.763C262.743 118.622 263.353 118.876 263.668 119.391C265.135 121.79 266.784 124.487 266.784 124.487C266.784 124.487 269.858 123.752 272.592 123.098C273.179 122.958 273.789 123.21 274.104 123.725C274.418 124.24 274.366 124.899 273.974 125.357C272.145 127.494 270.091 129.895 270.091 129.895C270.091 129.895 271.739 132.59 273.205 134.989C273.52 135.504 273.468 136.163 273.076 136.621C272.684 137.08 272.041 137.234 271.484 137.002C268.886 135.923 265.969 134.711 265.969 134.711C265.969 134.711 263.915 137.111 262.086 139.248C261.694 139.707 261.051 139.861 260.494 139.629C259.937 139.397 259.592 138.833 259.64 138.232C259.863 135.429 260.114 132.28 260.114 132.28C260.114 132.28 257.196 131.068 254.599 129.989C254.042 129.757 253.697 129.193 253.745 128.592C253.793 127.99 254.223 127.489 254.809 127.349C257.544 126.695 260.618 125.961 260.618 125.961C260.618 125.961 260.869 122.809 261.092 120.007ZM237.449 125.659C237.497 125.057 237.926 124.555 238.513 124.414C239.099 124.274 239.71 124.528 240.024 125.043C241.491 127.442 243.14 130.138 243.14 130.138C243.14 130.138 246.214 129.404 248.949 128.75C249.535 128.61 250.145 128.862 250.46 129.377C250.775 129.891 250.722 130.55 250.33 131.009C248.502 133.146 246.448 135.546 246.448 135.546C246.448 135.546 248.095 138.242 249.562 140.641C249.876 141.155 249.824 141.815 249.432 142.273C249.04 142.732 248.397 142.885 247.84 142.654C245.243 141.575 242.325 140.363 242.325 140.363C242.325 140.363 240.271 142.763 238.443 144.9C238.051 145.359 237.408 145.512 236.851 145.281C236.294 145.049 235.949 144.485 235.997 143.883C236.22 141.081 236.47 137.932 236.47 137.932C236.47 137.932 233.553 136.719 230.955 135.641C230.398 135.409 230.053 134.845 230.101 134.243C230.149 133.642 230.579 133.141 231.166 133.001C233.9 132.347 236.974 131.612 236.974 131.612C236.974 131.612 237.226 128.461 237.449 125.659Z" fill="#FFF9EF"/>
</g>
<g clip-path="url(#clip3_11_27)">
<path d="M103.69 241.484C102.172 246.799 99.7048 250.174 96.7522 252.305C93.7711 254.456 90.0694 255.5 85.8253 255.738C77.2136 256.219 67.1265 253.366 58.1045 250.788C49.0857 248.212 38.873 245.267 31.6779 240.265C28.1282 237.797 25.4721 234.931 24.0324 231.512C22.6083 228.13 22.2688 223.96 23.7837 218.657C26.6161 208.742 32.1991 197.284 41.0025 189.516C49.6754 181.863 61.5939 177.661 77.6822 182.257C92.9323 186.613 100.719 196.458 104.113 207.637C107.549 218.956 106.48 231.718 103.69 241.484Z" fill="#FBC546" stroke="black" stroke-width="4.93429"/>
<path fill-rule="evenodd" clip-rule="evenodd" d="M45.6075 206.678C45.9089 207.22 46.4142 207.621 47.012 207.791C47.6099 207.962 48.2505 207.889 48.7929 207.588C48.8045 207.581 48.8126 207.579 48.8126 207.579C50.576 206.599 52.6553 206.358 54.5954 206.913C56.5355 207.467 58.174 208.769 59.1538 210.533C59.1538 210.533 59.1592 210.539 59.1657 210.551C59.467 211.093 59.9724 211.494 60.5702 211.665C61.168 211.835 61.8087 211.762 62.3511 211.461C62.3533 211.461 62.354 211.459 62.354 211.459C63.4874 210.831 63.896 209.401 63.2652 208.269C63.261 208.258 63.2578 208.253 63.2578 208.253C61.6737 205.401 59.0201 203.296 55.8843 202.401C52.7486 201.505 49.3834 201.89 46.5323 203.475C46.5323 203.475 46.5265 203.478 46.5172 203.485C45.3838 204.113 44.9752 205.543 45.6059 206.675C45.6059 206.675 45.6053 206.677 45.6075 206.678Z" fill="black"/>
<path fill-rule="evenodd" clip-rule="evenodd" d="M91.6783 219.839C91.136 220.14 90.4953 220.213 89.8975 220.043C89.2996 219.872 88.7943 219.471 88.493 218.929C88.4865 218.917 88.481 218.911 88.481 218.911C87.5013 217.147 85.8628 215.845 83.9227 215.291C81.9826 214.736 79.9033 214.977 78.1398 215.957C78.1398 215.957 78.1318 215.959 78.1202 215.966C77.5778 216.267 76.9371 216.34 76.3393 216.169C75.7415 215.999 75.2361 215.598 74.9348 215.056C74.9325 215.055 74.9332 215.053 74.9332 215.053C74.3025 213.921 74.711 212.491 75.8445 211.863C75.8538 211.856 75.8596 211.853 75.8596 211.853C78.7107 210.269 82.0759 209.883 85.2116 210.779C88.3474 211.675 91.001 213.78 92.5851 216.631C92.5851 216.631 92.5883 216.636 92.5925 216.647C93.2232 217.779 92.8146 219.209 91.6812 219.837C91.6812 219.837 91.6806 219.84 91.6783 219.839Z" fill="black"/>
<path fill-rule="evenodd" clip-rule="evenodd" d="M83.2805 230.337L62.6552 234.205C62.6552 234.205 63.0887 236.523 63.6222 239.362C64.6914 245.057 70.1734 248.81 75.8688 247.74C81.5643 246.671 85.3167 241.189 84.2475 235.494C83.714 232.655 83.2805 230.337 83.2805 230.337Z" fill="#DD34A2"/>
<path d="M43.9624 214.226C43.9624 214.226 44.0991 214.551 44.3279 215.099C47.7639 223.306 54.7427 229.506 63.2972 231.95C63.2994 231.951 63.2994 231.951 63.3017 231.951C71.8562 234.395 81.057 232.817 88.3096 227.664C88.7936 227.319 89.0811 227.116 89.0811 227.116" stroke="#593604" stroke-width="4.69443" stroke-miterlimit="1.5" stroke-linecap="round"/>
</g>
<g clip-path="url(#clip4_11_27)">
<path d="M289.025 220.499C290.289 225.897 289.774 230.058 288.227 233.366C286.665 236.705 283.931 239.427 280.328 241.706C273.018 246.331 262.787 248.754 253.624 250.898C244.464 253.043 234.079 255.447 225.333 254.575C221.019 254.145 217.293 252.93 214.363 250.637C211.465 248.369 209.132 244.88 207.871 239.495C205.516 229.436 205.243 218.512 209.469 209.241C213.635 200.101 222.369 192.141 238.961 188.257C254.702 184.572 265.958 187.877 273.854 194.26C281.854 200.726 286.708 210.598 289.025 220.499Z" fill="#FBC546" stroke="black" stroke-width="4.94883"/>
<path d="M234.969 234.325C234.969 234.325 235.043 234.445 235.168 234.649C237.373 238.229 241.618 239.997 245.711 239.039L249.021 233.445L254.849 236.9C258.943 235.942 261.962 232.474 262.348 228.287C262.37 228.048 262.383 227.908 262.383 227.908" stroke="#593604" stroke-width="4.70826" stroke-miterlimit="1.5" stroke-linecap="round"/>
<path fill-rule="evenodd" clip-rule="evenodd" d="M254.926 219.891L262.314 220.571C263.603 220.691 264.746 219.739 264.866 218.451C264.983 217.161 264.034 216.017 262.744 215.9L255.356 215.219C254.067 215.099 252.924 216.051 252.804 217.34C252.686 218.63 253.636 219.774 254.926 219.891Z" fill="black"/>
<path fill-rule="evenodd" clip-rule="evenodd" d="M235.636 219.835L229.318 223.724C228.214 224.402 227.87 225.848 228.548 226.952C229.227 228.053 230.675 228.399 231.776 227.72L238.094 223.831C239.198 223.153 239.542 221.707 238.864 220.603C238.184 219.501 236.737 219.156 235.636 219.835Z" fill="black"/>
<path fill-rule="evenodd" clip-rule="evenodd" d="M278.446 163.484L285.526 193.728L276.666 201.097C275.717 201.884 274.599 202.44 273.398 202.721C270.507 203.398 258.003 206.324 250.808 208.009C248.076 208.648 245.201 208.176 242.816 206.696C242.32 206.388 241.853 206.041 241.421 205.661L217.61 217.122C216.315 211.592 213.662 205.553 217.203 200.356C217.756 199.539 218.427 198.803 219.185 198.175C224.734 193.559 230.284 188.947 235.833 184.332L260.686 178.514L268.581 165.793L278.446 163.484Z" fill="black"/>
<path fill-rule="evenodd" clip-rule="evenodd" d="M238.259 189.2L266.606 182.565L278.443 190.667L278.871 192.38L273.283 197.026C272.966 197.288 272.594 197.473 272.194 197.566L254.758 201.647C253.673 201.901 250.437 202.626 248.459 202.108C245.26 201.272 243.249 198.905 243.249 198.905L243.248 198.9L221.262 209.488L220.801 207.519C220.345 205.568 221.03 203.524 222.573 202.244C227.567 198.091 238.259 189.2 238.259 189.2Z" fill="#FBC546"/>
<path fill-rule="evenodd" clip-rule="evenodd" d="M264.029 183.168L271.925 170.447L274.502 169.844L279.629 191.749L278.872 192.38L264.029 183.168Z" fill="#E59A10"/>
<path fill-rule="evenodd" clip-rule="evenodd" d="M243.25 198.91L243.249 198.905C242.583 196.06 244.349 193.211 247.197 192.545L260.082 189.528L261.288 194.683L248.403 197.699C248.403 197.699 248.404 197.701 248.404 197.704C249.07 200.549 251.916 202.313 254.758 201.647L249.604 202.854C248.239 203.174 246.803 202.939 245.61 202.199C244.42 201.458 243.57 200.276 243.25 198.91Z" fill="#7E5108"/>
<path d="M214.985 190.977L214.988 190.979C217.534 192.563 218.322 195.913 216.738 198.464M214.985 190.977L214.366 196.992M214.985 190.977L208.625 187.029C206.075 185.447 202.72 186.232 201.137 188.782L201.135 188.785C199.558 191.335 200.338 194.686 202.89 196.269L209.247 200.215M214.985 190.977L209.247 200.215M216.738 198.464L214.366 196.992M216.738 198.464C216.739 198.463 216.739 198.462 216.74 198.461L214.366 196.992M216.738 198.464C215.156 201.018 211.8 201.803 209.249 200.216L209.25 200.217L210.722 197.845M214.366 196.992C213.597 198.235 211.963 198.618 210.722 197.845M210.722 197.845L209.247 200.215M210.722 197.845L209.247 200.215M208.039 213.01L213.193 211.803C216.117 211.119 217.933 208.192 217.249 205.269C216.564 202.345 213.638 200.529 210.714 201.213L205.56 202.42C202.637 203.104 200.821 206.031 201.505 208.954C202.189 211.878 205.116 213.694 208.039 213.01ZM216.528 191.846C217.212 194.77 220.139 196.586 223.062 195.902C225.986 195.218 227.802 192.291 227.118 189.368L225.911 184.214C225.227 181.29 222.3 179.474 219.377 180.158C216.453 180.842 214.637 183.769 215.321 186.692L216.528 191.846Z" fill="white" stroke="black" stroke-width="5.58267"/>
</g>
<g clip-path="url(#clip5_11_27)">
<path d="M282.14 83.885C280.992 89.2227 278.782 92.7111 276.011 95.0046C273.214 97.3201 269.635 98.592 265.467 99.1042C257.011 100.143 246.883 97.9923 237.822 96.0436C228.764 94.0957 218.506 91.8632 211.087 87.4049C207.426 85.2055 204.621 82.5543 202.978 79.2793C201.352 76.0399 200.744 71.9516 201.89 66.6261C204.031 56.6684 208.782 45.0103 216.949 36.7767C224.995 28.6652 236.466 23.7426 252.624 27.2175C267.94 30.5113 276.26 39.7035 280.337 50.4982C284.466 61.4292 284.249 74.0767 282.14 83.885Z" fill="#FBC546" stroke="black" stroke-width="4.87384"/>
<path d="M214.221 78.2851C212.305 77.153 210.237 76.3003 208.085 75.7511C203.531 74.7717 202.695 80.5241 213.033 86.6249L213.556 86.5102L217.33 80.1223C217.33 80.1223 215.788 79.2124 214.221 78.2851Z" fill="#E59A10"/>
<path d="M281.341 79.1737C281.819 79.5569 282.173 66.18 281.608 66.8994L277.42 65.9985L272.861 71.6886C276.122 73.6141 279.038 76.2305 281.341 79.1737Z" fill="#E59A10"/>
<path d="M259.309 31.8342C268.857 35.5693 275.416 42.8656 278.835 51.7287C263.851 51.0286 255.593 38.6023 259.309 31.8342Z" fill="#E59A10"/>
<path d="M266.432 67.5012C267.137 68.5886 266.824 70.0429 265.735 70.7445C264.647 71.449 263.193 71.1363 262.491 70.047C261.161 67.9874 259.263 65.0499 259.263 65.0499C259.263 65.0499 256.278 66.9781 254.216 68.3104C253.706 68.6399 253.086 68.7538 252.494 68.6266C251.903 68.4993 251.385 68.1407 251.055 67.6307C250.707 67.0951 250.588 66.4431 250.722 65.8192C250.857 65.1953 251.233 64.65 251.77 64.3048C254.923 62.2685 260.658 58.5632 260.658 58.5632C260.658 58.5632 264.404 64.3579 266.432 67.5012Z" fill="black"/>
<path d="M238.908 61.5908C239.244 62.112 239.36 62.7464 239.229 63.3542C239.099 63.962 238.732 64.4929 238.211 64.8295C238.211 64.8318 238.208 64.8313 238.208 64.8313C237.121 65.5358 235.667 65.223 234.965 64.1338C233.635 62.0742 231.737 59.1366 231.737 59.1366C231.737 59.1366 228.752 61.0649 226.69 62.3972C226.18 62.7267 225.56 62.8406 224.968 62.7134C224.376 62.5861 223.858 62.2275 223.529 61.7175C223.181 61.1819 223.062 60.5299 223.196 59.906C223.33 59.2821 223.707 58.7367 224.244 58.3916C227.396 56.3553 233.132 52.65 233.132 52.65C233.132 52.65 236.877 58.447 238.908 61.5908Z" fill="black"/>
<path fill-rule="evenodd" clip-rule="evenodd" d="M235.772 74.7267C235.738 74.8848 235.73 75.0513 235.748 75.2149C235.901 76.6155 236.683 83.7036 237.187 88.2656C237.445 90.6109 239.177 92.5277 241.484 93.0237C244.235 93.6154 247.975 94.4196 251.015 95.0735C253.975 95.7101 256.888 93.8282 257.525 90.8681C257.525 90.8681 251.42 79.2215 248.78 74.1891C248.025 72.7486 246.669 71.717 245.077 71.3748C244.151 71.1755 243.06 70.941 241.983 70.7094C239.16 70.1022 236.38 71.8979 235.773 74.7214C235.772 74.724 235.772 74.724 235.772 74.7267Z" fill="#5462CB"/>
<path fill-rule="evenodd" clip-rule="evenodd" d="M262.883 92.0177C263.189 90.598 262.917 89.1129 262.128 87.8923C261.34 86.6717 260.098 85.8132 258.678 85.5079C254.692 84.6506 249.27 83.4846 245.284 82.6273C243.864 82.3219 242.379 82.5939 241.158 83.3824C239.938 84.171 239.079 85.4129 238.774 86.8327C238.469 88.2525 238.741 89.7375 239.529 90.9581C240.318 92.1787 241.56 93.0372 242.979 93.3426C246.966 94.1998 252.387 95.3659 256.374 96.2231C257.793 96.5285 259.278 96.2565 260.499 95.468C261.72 94.6795 262.578 93.4375 262.883 92.0177Z" fill="#2438B9"/>
<path fill-rule="evenodd" clip-rule="evenodd" d="M207.325 29.7631L215.474 21.8463C218.571 26.6413 223.443 30.0064 229.022 31.2063C231.052 31.6429 232.633 31.9828 232.633 31.9828L224.484 39.8996C218.458 38.6037 212.948 35.5526 208.655 31.1321C207.861 30.3135 207.325 29.7631 207.325 29.7631Z" fill="#F229A2"/>
<path fill-rule="evenodd" clip-rule="evenodd" d="M289.385 68.8103L291.624 58.403C291.624 58.403 289.884 58.595 287.776 58.8276C283.099 59.3426 278.408 57.9818 274.736 55.0397C274.448 54.8108 274.278 54.6726 274.278 54.6726L272.04 65.0799C272.04 65.0799 272.21 65.2181 272.498 65.4471C276.17 68.3891 280.861 69.75 285.537 69.235C287.645 69.0023 289.385 68.8103 289.385 68.8103Z" fill="#F229A2"/>
<path fill-rule="evenodd" clip-rule="evenodd" d="M277.41 48.0951L279.627 37.7878L276.435 37.1013C271.879 36.1215 267.898 33.371 265.371 29.4593C264.549 28.186 263.926 27.2217 263.926 27.2217L261.709 37.529C261.709 37.529 262.332 38.4934 263.155 39.7666C265.682 43.6783 269.663 46.4289 274.218 47.4087C275.998 47.7914 277.41 48.0951 277.41 48.0951Z" fill="#F229A2"/>
<path fill-rule="evenodd" clip-rule="evenodd" d="M196.753 78.9195L202.294 69.5408C208.881 70.9574 215.742 70.3931 222.007 67.9175C223.167 67.4586 223.948 67.151 223.948 67.151L218.408 76.5297C218.408 76.5297 217.626 76.8373 216.467 77.2962C210.202 79.7718 203.34 80.3361 196.753 78.9195Z" fill="#F229A2"/>
<path fill-rule="evenodd" clip-rule="evenodd" d="M228.887 44.2071C225.988 44.9318 222.927 45.0924 219.868 44.6223C219.7 44.5965 219.532 44.5707 219.367 44.5454C217.833 44.3097 216.454 43.4727 215.535 42.2207C214.617 40.9687 214.233 39.4018 214.468 37.8679C215.879 28.6881 218.471 11.8217 218.471 11.8217L222.059 16.4198L230.957 38.8879L228.887 44.2071Z" fill="#8012DA"/>
<path fill-rule="evenodd" clip-rule="evenodd" d="M228.887 44.2071L218.471 11.8217C218.471 11.8217 233.085 22.1694 240.694 27.557C243.175 29.3159 243.764 32.7509 242.005 35.2327C242.005 35.2327 242.005 35.2327 242.005 35.2355C238.786 39.7769 234.099 42.9019 228.887 44.2071Z" fill="#982EEE"/>
<path fill-rule="evenodd" clip-rule="evenodd" d="M260.887 93.4804C260.887 93.4804 261.173 94.204 261.592 95.2712C263.778 100.801 268.58 104.872 274.393 106.122L274.396 106.123L282.602 98.1505L282.599 98.1499C276.785 96.8996 271.984 92.8291 269.798 87.2991C269.378 86.2319 269.093 85.5083 269.093 85.5083L260.887 93.4804Z" fill="#F229A2"/>
</g>
<g clip-path="url(#clip6_11_27)">
<mask id="mask0_11_27" style="mask-type:luminance" maskUnits="userSpaceOnUse" x="13" y="104" width="72" height="72">
<path fill-rule="evenodd" clip-rule="evenodd" d="M13.9993 115.597L73.6995 104.342L84.9548 164.042L25.2545 175.297L13.9993 115.597Z" fill="white"/>
</mask>
<g mask="url(#mask0_11_27)">
<path fill-rule="evenodd" clip-rule="evenodd" d="M28.2824 170.862C28.2824 170.862 29.5117 149.93 30.1233 139.504C30.3216 136.118 32.799 133.304 36.131 132.676L36.1329 132.675C47.683 130.498 58.812 138.096 60.9895 149.646L60.9899 149.648C61.618 152.98 59.8989 156.312 56.8181 157.73C47.3304 162.096 28.2824 170.862 28.2824 170.862Z" stroke="black" stroke-width="7.7296" stroke-miterlimit="1.5" stroke-linecap="round" stroke-linejoin="round"/>
<path d="M47.9631 142.037C47.9631 142.037 50.9438 139.771 53.673 137.697C56.5317 135.522 58.5292 132.406 59.3071 128.897C59.4003 128.48 59.4959 128.054 59.5896 127.629C60.5884 123.131 64.1711 119.661 68.699 118.808" stroke="black" stroke-width="11.5944" stroke-miterlimit="1.5" stroke-linecap="square" stroke-linejoin="round"/>
<path d="M39.0936 135.981C39.0936 135.981 38.8661 134.774 38.6223 133.481C38.2646 131.584 39.0103 129.646 40.5479 128.478L40.5513 128.475C41.6764 127.618 42.4168 126.35 42.6084 124.948C42.7982 123.546 42.4259 122.125 41.5686 121C40.538 119.643 39.6594 118.487 39.6594 118.487" stroke="black" stroke-width="11.5944" stroke-miterlimit="1.5" stroke-linecap="square" stroke-linejoin="round"/>
<path d="M59.4551 146.632L61.5278 146.241C63.8449 145.804 66.232 145.913 68.5002 146.559C70.7296 147.194 73.218 147.901 73.218 147.901" stroke="black" stroke-width="11.5944" stroke-miterlimit="1.5" stroke-linecap="square" stroke-linejoin="round"/>
<path fill-rule="evenodd" clip-rule="evenodd" d="M45.1493 127.112L48.1771 122.677L52.6118 125.705L49.584 130.139L45.1493 127.112Z" stroke="black" stroke-width="7.7296" stroke-miterlimit="1.5" stroke-linecap="round" stroke-linejoin="round"/>
<path fill-rule="evenodd" clip-rule="evenodd" d="M51.205 118.242L52.0154 112.293L57.964 113.104L57.1536 119.053L51.205 118.242Z" stroke="black" stroke-width="7.7296" stroke-miterlimit="1.5" stroke-linecap="round" stroke-linejoin="round"/>
<path fill-rule="evenodd" clip-rule="evenodd" d="M57.6431 142.144L58.4535 136.195L64.4021 137.005L63.5917 142.954L57.6431 142.144Z" stroke="black" stroke-width="7.7296" stroke-miterlimit="1.5" stroke-linecap="round" stroke-linejoin="round"/>
<path fill-rule="evenodd" clip-rule="evenodd" d="M25.4378 125.032L28.4656 120.597L32.9004 123.625L29.8726 128.06L25.4378 125.032Z" stroke="black" stroke-width="7.7296" stroke-miterlimit="1.5" stroke-linecap="round" stroke-linejoin="round"/>
<path fill-rule="evenodd" clip-rule="evenodd" d="M67.0782 130.705L70.106 126.27L74.5407 129.298L71.5129 133.733L67.0782 130.705Z" stroke="black" stroke-width="7.7296" stroke-miterlimit="1.5" stroke-linecap="round" stroke-linejoin="round"/>
<path fill-rule="evenodd" clip-rule="evenodd" d="M44.4458 123.38L53.0705 117.89L64.2643 115.78L67.4299 132.571L37.5797 138.198L34.7659 123.273L44.4458 123.38Z" fill="black"/>
<path fill-rule="evenodd" clip-rule="evenodd" d="M31.3417 135.853L59.7749 155.265C59.044 156.307 58.0377 157.169 56.818 157.73C47.3304 162.096 28.2824 170.862 28.2824 170.862C28.2824 170.862 29.5117 149.93 30.1232 139.504C30.201 138.164 30.6374 136.913 31.3417 135.853Z" fill="#E4AB1B"/>
<path fill-rule="evenodd" clip-rule="evenodd" d="M31.3417 135.852C32.416 134.234 34.118 133.055 36.131 132.676L36.1329 132.675C47.683 130.498 58.8119 138.096 60.9895 149.646L60.9898 149.648C61.3693 151.661 60.8913 153.675 59.7749 155.265L58.2395 155.555C52.3012 156.674 46.1627 155.39 41.1733 151.981C36.1824 148.576 32.7507 143.326 31.6312 137.388L31.3417 135.852Z" fill="#5E3D05"/>
<path d="M47.9631 142.037C47.9631 142.037 50.9438 139.771 53.673 137.697C56.5317 135.522 58.5292 132.406 59.3071 128.897C59.4003 128.48 59.4959 128.054 59.5896 127.629C60.5884 123.131 64.1711 119.661 68.699 118.808" stroke="#37CBE8" stroke-width="3.8648" stroke-miterlimit="1.5" stroke-linecap="square" stroke-linejoin="round"/>
<path d="M39.0936 135.981C39.0936 135.981 38.8661 134.774 38.6223 133.481C38.2646 131.584 39.0103 129.646 40.5479 128.478L40.5513 128.475C41.6764 127.618 42.4168 126.35 42.6084 124.948C42.7982 123.546 42.4259 122.125 41.5686 121C40.538 119.643 39.6594 118.487 39.6594 118.487" stroke="#F2C618" stroke-width="3.8648" stroke-miterlimit="1.5" stroke-linecap="square" stroke-linejoin="round"/>
<path d="M59.4551 146.632L61.5278 146.241C63.8449 145.804 66.232 145.913 68.5002 146.559C70.7296 147.194 73.218 147.901 73.218 147.901" stroke="#FF4586" stroke-width="3.8648" stroke-miterlimit="1.5" stroke-linecap="square" stroke-linejoin="round"/>
<path fill-rule="evenodd" clip-rule="evenodd" d="M45.1493 127.112L48.1771 122.677L52.6118 125.705L49.584 130.139L45.1493 127.112Z" fill="#9146DC"/>
<path fill-rule="evenodd" clip-rule="evenodd" d="M25.4378 125.032L28.4656 120.597L32.9004 123.625L29.8726 128.06L25.4378 125.032Z" fill="#9146DC"/>
<path fill-rule="evenodd" clip-rule="evenodd" d="M67.0782 130.705L70.106 126.27L74.5407 129.298L71.5129 133.733L67.0782 130.705Z" fill="#9146DC"/>
<path fill-rule="evenodd" clip-rule="evenodd" d="M51.205 118.242L52.0154 112.293L57.964 113.104L57.1536 119.053L51.205 118.242Z" fill="#F2298A"/>
<path fill-rule="evenodd" clip-rule="evenodd" d="M57.6431 142.144L58.4535 136.195L64.4021 137.005L63.5917 142.954L57.6431 142.144Z" fill="#F2C618"/>
</g>
</g>
<g clip-path="url(#clip7_11_27)">
<path d="M204.283 152.632C203.322 159.509 200.842 164.139 197.54 167.305C194.207 170.502 189.784 172.447 184.545 173.483C173.915 175.585 160.868 173.796 149.194 172.164C137.524 170.533 124.304 168.652 114.48 163.685C109.633 161.234 105.828 158.131 103.44 154.129C101.078 150.171 99.928 145.042 100.887 138.18C102.68 125.35 107.626 110.122 117.223 98.9202C126.677 87.885 140.771 80.5772 161.589 83.487C181.321 86.2452 192.728 97.1338 198.9 110.449C205.151 123.932 206.049 139.995 204.283 152.632Z" fill="#FBC546" stroke="black" stroke-width="6.20899"/>
<path fill-rule="evenodd" clip-rule="evenodd" d="M134.37 147.117C129.483 142.14 126.396 135.486 125.951 128.275L183.185 136.274C180.78 143.087 175.987 148.64 169.923 152.086C167.167 148.113 138.109 144.051 134.37 147.117Z" fill="#722245"/>
<path fill-rule="evenodd" clip-rule="evenodd" d="M134.373 147.116C138.112 144.051 143.041 142.573 148.046 143.272L157.83 144.64C162.835 145.34 167.17 148.113 169.925 152.086C164.472 155.182 157.993 156.572 151.305 155.638C144.617 154.703 138.767 151.589 134.373 147.116Z" fill="#CA3B8F"/>
<path fill-rule="evenodd" clip-rule="evenodd" d="M135.999 126.702C138.709 127.08 141.456 126.366 143.639 124.718C145.823 123.069 147.263 120.624 147.642 117.914C147.91 115.995 148.191 113.986 148.46 112.067C149.249 106.422 145.312 101.206 139.667 100.417L139.661 100.417C136.951 100.038 134.204 100.752 132.02 102.4C129.837 104.048 128.396 106.494 128.018 109.204L127.2 115.051C126.411 120.696 130.348 125.912 135.993 126.701L135.999 126.702Z" fill="white"/>
<path fill-rule="evenodd" clip-rule="evenodd" d="M134.062 108.566C134.278 107.018 135.102 105.618 136.35 104.676C137.598 103.734 139.171 103.325 140.719 103.542C142.267 103.758 143.667 104.582 144.609 105.83C145.551 107.078 145.959 108.651 145.743 110.199L144.525 118.91C144.309 120.461 143.485 121.858 142.237 122.803C140.988 123.746 139.416 124.151 137.868 123.935C136.321 123.718 134.92 122.897 133.978 121.649C133.036 120.398 132.627 118.828 132.844 117.278C133.226 114.547 133.68 111.3 134.062 108.566Z" fill="black"/>
<path fill-rule="evenodd" clip-rule="evenodd" d="M173.952 132.006C171.242 131.628 168.796 130.187 167.148 128.003C165.5 125.82 164.786 123.073 165.164 120.363C165.433 118.444 165.713 116.435 165.982 114.516C166.771 108.871 171.987 104.935 177.632 105.724L177.638 105.725C180.348 106.103 182.793 107.544 184.441 109.727C186.089 111.911 186.804 114.658 186.425 117.368L185.608 123.214C184.819 128.86 179.603 132.796 173.958 132.007L173.952 132.006Z" fill="white"/>
<path fill-rule="evenodd" clip-rule="evenodd" d="M180.787 115.097C181.004 113.55 180.595 111.977 179.653 110.729C178.711 109.48 177.311 108.656 175.763 108.44C174.215 108.224 172.643 108.632 171.394 109.574C170.146 110.516 169.322 111.917 169.106 113.464L167.888 122.176C167.672 123.727 168.08 125.296 169.022 126.547C169.964 127.796 171.365 128.617 172.913 128.833C174.461 129.049 176.033 128.644 177.281 127.702C178.53 126.757 179.353 125.359 179.57 123.809C179.951 121.078 180.405 117.831 180.787 115.097Z" fill="black"/>
</g>
<g clip-path="url(#clip8_11_27)">
<mask id="mask1_11_27" style="mask-type:luminance" maskUnits="userSpaceOnUse" x="111" y="0" width="79" height="79">
<path d="M111.189 7.05125L182.893 0.531509L189.413 72.2357L117.709 78.7555L111.189 7.05125Z" fill="white"/>
</mask>
<g mask="url(#mask1_11_27)">
<path d="M185.16 47.7533C185.569 52.2552 184.683 55.5575 183.059 58.0535C181.42 60.5737 178.904 62.4621 175.737 63.8946C169.31 66.802 160.774 67.6001 153.132 68.2949C145.492 68.9895 136.834 69.7556 129.87 68.0619C126.435 67.2263 123.563 65.8233 121.457 63.6401C119.373 61.4805 117.884 58.3994 117.476 53.9076C116.712 45.5092 117.592 35.1231 122.016 26.6008C126.374 18.2051 134.226 11.4849 147.854 10.2458C160.771 9.07125 169.614 14.2841 175.5 21.8102C181.459 29.4313 184.408 39.4809 185.16 47.7533Z" fill="#FBC546" stroke="black" stroke-width="4.17612"/>
<path d="M138.403 49.6413C138.403 49.6413 138.933 50.2294 139.689 51.0663C142.928 54.654 147.667 56.509 152.48 56.0713C157.294 55.6336 161.621 52.9543 164.159 48.8414C164.752 47.8817 165.167 47.2078 165.167 47.2078" stroke="#593604" stroke-width="3.9731" stroke-miterlimit="1.5" stroke-linecap="round"/>
<path fill-rule="evenodd" clip-rule="evenodd" d="M139.015 45.7309C140.789 45.5696 142.425 44.7096 143.565 43.3415C144.705 41.9733 145.256 40.2098 145.094 38.4355C144.98 37.1796 144.86 35.8643 144.746 34.6083C144.41 30.9131 141.142 28.1898 137.447 28.5258L137.443 28.5261C135.669 28.6875 134.034 29.5474 132.894 30.9156C131.753 32.2835 131.203 34.0473 131.364 35.8213L131.712 39.6485C132.048 43.3439 135.316 46.0672 139.011 45.7312L139.015 45.7309Z" fill="white"/>
<path fill-rule="evenodd" clip-rule="evenodd" d="M135.101 34.5215C135.009 33.5085 135.324 32.4986 135.975 31.7166C136.627 30.9344 137.563 30.4426 138.577 30.3504C139.59 30.2583 140.6 30.5732 141.382 31.2251C142.164 31.8767 142.656 32.8132 142.748 33.8262L143.266 39.5289C143.359 40.544 143.044 41.5518 142.392 42.3358C141.74 43.1181 140.804 43.6079 139.791 43.7C138.777 43.7921 137.768 43.4793 136.986 42.8274C136.203 42.1738 135.712 41.2393 135.619 40.2242C135.457 38.4368 135.264 36.311 135.101 34.5215Z" fill="black"/>
<path fill-rule="evenodd" clip-rule="evenodd" d="M162.995 27.7312C163.15 27.5475 163.336 27.3918 163.547 27.2763C164.067 26.9919 164.706 26.9647 165.248 27.2044C165.44 27.2911 165.618 27.408 165.773 27.55C165.931 27.6956 166.065 27.8685 166.165 28.058C166.276 28.2695 166.35 28.5018 166.377 28.7402C166.405 28.9864 166.385 29.2349 166.318 29.4741C166.246 29.7371 166.118 29.9781 165.944 30.1887L161.09 36.0134L166.034 35.5639C167.089 35.468 168.023 36.2467 168.119 37.3019C168.215 38.3571 167.437 39.2916 166.381 39.3876L155.548 40.3726L154.029 38.4886L162.995 27.7312Z" fill="black"/>
</g>
</g>
<defs>
<clipPath id="clip0_11_27">
<rect width="88" height="88" fill="white" transform="translate(-0.000732422 27.9201) rotate(-14.8669)"/>
</clipPath>
<clipPath id="clip1_11_27">
<rect width="72" height="72" fill="white" transform="translate(126.183 180.066) rotate(9.15787)"/>
</clipPath>
<clipPath id="clip2_11_27">
<rect width="60.7869" height="60.7869" fill="white" transform="translate(217.999 116.474) rotate(-13.4439)"/>
</clipPath>
<clipPath id="clip3_11_27">
<rect width="88" height="88" fill="white" transform="translate(37.276 162.446) rotate(15.9433)"/>
</clipPath>
<clipPath id="clip4_11_27">
<rect width="88" height="88" fill="white" transform="translate(192.26 183.658) rotate(-13.1744)"/>
</clipPath>
<clipPath id="clip5_11_27">
<rect width="88" height="88" fill="white" transform="translate(211.502 10.3415) rotate(12.1374)"/>
</clipPath>
<clipPath id="clip6_11_27">
<rect width="60.752" height="60.752" fill="white" transform="translate(13.9993 115.597) rotate(-10.6766)"/>
</clipPath>
<clipPath id="clip7_11_27">
<rect width="110.601" height="110.601" fill="white" transform="translate(107.861 65.8932) rotate(7.95697)"/>
</clipPath>
<clipPath id="clip8_11_27">
<rect width="72" height="72" fill="white" transform="translate(111.189 7.05125) rotate(-5.19537)"/>
</clipPath>
</defs>
</svg>
