<svg width="92" height="92" viewBox="0 0 92 92" fill="none" xmlns="http://www.w3.org/2000/svg">
<rect width="92" height="92" rx="23" fill="#ED6B44"/>
<path d="M79.4945 56.8412C79.4945 61.2656 78.3379 64.4059 76.5339 66.695C74.7124 69.006 72.093 70.6237 68.8787 71.7395C62.3565 74.0036 53.9655 74.0252 46.4549 74.0252C38.9471 74.0252 30.4394 74.0044 23.8017 71.7364C20.5271 70.6175 17.8525 68.9952 15.9927 66.6805C14.1532 64.3909 12.9748 61.2556 12.9748 56.8412C12.9748 48.5872 14.7526 38.5414 19.8202 30.6267C24.8125 22.8293 33.0618 16.9748 46.4549 16.9748C59.1501 16.9748 67.3079 22.8398 72.3776 30.6973C77.5112 38.654 79.4945 48.711 79.4945 56.8412Z" stroke="white" stroke-width="3.94964"/>
<path fill-rule="evenodd" clip-rule="evenodd" d="M43.8841 43.7642C44.4742 44.3544 45.274 44.6852 46.108 44.6852C46.942 44.6852 47.7417 44.3544 48.3319 43.7642C51.7205 40.3756 57.7866 34.3096 57.7866 34.3096C62.1676 37.765 64.9785 43.1213 64.9785 49.133C64.9785 54.6073 62.6428 59.5396 58.9156 62.9873C58.2975 63.5386 57.3579 63.5122 56.774 62.9267C56.0969 62.2667 55.2194 61.3892 54.5128 60.6842C54.2053 60.3751 54.0392 59.9527 54.0547 59.5179C54.0687 59.0815 54.2644 58.6715 54.5936 58.3857C57.1157 56.1044 58.6888 52.8011 58.6888 49.133H46.108H33.5271C33.5271 52.8011 35.1003 56.1044 37.6069 58.4044C37.9314 58.6855 38.1225 59.0892 38.138 59.5179C38.1535 59.9465 37.9889 60.3627 37.6861 60.6655C36.9965 61.3892 36.1191 62.2667 35.4513 62.936C34.8627 63.5262 33.9138 63.5526 33.2911 62.9981C29.5732 59.5396 27.2375 54.6073 27.2375 49.133C27.2375 43.1213 30.05 37.765 34.4294 34.3096C34.4294 34.3096 40.4955 40.3756 43.8841 43.7642Z" fill="white"/>
</svg>
